<svg xmlns="http://www.w3.org/2000/svg" width="577" height="536" viewBox="0 0 577 536" fill="none">
  <g filter="url(#filter0_dd_119_145)">
    <path d="M158.202 227.551L129.197 173.079C124.052 163.416 116.027 155.595 106.236 150.699C100.974 148.068 95.3094 146.336 89.476 145.576L85.2036 145.018C78.6198 144.159 71.9535 144.142 65.3653 144.965L51.2878 146.725C31.7037 151.699 16.0856 166.448 10.0011 185.716L7.78783 192.725L5.73696 203.858C4.77854 209.061 4.75475 214.393 5.66671 219.604C7.05479 227.536 10.5673 234.943 15.8305 241.037L18.5823 244.224C23.9936 250.489 30.6475 255.563 38.1223 259.122L41.3366 260.653C45.6101 262.688 50.1806 264.029 54.8762 264.625L58.9719 265.145C71.6153 266.751 84.1969 261.749 92.2867 251.9L92.9973 251.035C98.9339 243.808 101.676 234.477 100.592 225.187L100.453 223.995C99.3943 214.924 94.4845 206.746 86.9752 201.547C81.9566 198.072 76.0437 196.117 69.9431 195.913L57.3465 195.493C56.9784 195.481 56.6172 195.39 56.2878 195.225L58.2291 196.195C60.914 197.538 63.3418 199.342 65.4017 201.526L70.3482 206.769C79.0434 215.986 76.9721 230.883 66.0924 237.379C58.749 241.763 49.4214 240.941 42.9583 235.339L42.5567 234.991C40.08 232.845 38.1527 230.137 36.9355 227.094L35.3986 223.252C32.4042 215.766 31.8955 207.516 33.9473 199.719L34.5999 197.239C36.9612 188.266 42.7903 180.598 50.8049 175.923C54.4306 173.808 58.4073 172.363 62.5448 171.657L65.2315 171.198C72.7733 169.91 80.5267 170.839 87.5507 173.872C94.8706 177.033 101.063 182.334 105.316 189.079L113.288 201.725L126.307 230.181C128.843 235.724 131.88 241.024 135.381 246.014L144.897 259.575C151.002 268.277 158.513 275.902 167.122 282.137C174.528 287.501 182.664 291.777 191.281 294.835L193.788 295.725L215.298 301.792C219.265 302.911 218.871 308.658 214.788 309.225L207.229 310.305C200.636 311.247 193.942 311.233 187.353 310.264C182.655 309.573 178.041 308.401 173.584 306.767L165.288 303.725L148.288 295.725L139.704 292.423C132.451 289.634 124.898 287.699 117.198 286.659L110.288 285.725L106.97 285.448C101.193 284.967 95.3848 284.989 89.6116 285.514L87.2878 285.725C80.9744 286.722 74.7925 288.423 68.858 290.797L67.7878 291.225L66.9207 291.636C61.1993 294.346 55.927 297.917 51.2878 302.225L45.0008 309.174C42.8628 311.537 40.9322 314.08 39.2305 316.774C36.9431 320.396 35.0825 324.27 33.6861 328.32L30.7878 336.725L30.7297 337.015C29.4383 343.473 28.7878 350.042 28.7878 356.627V358.725V360.407C28.7878 365.257 29.5362 370.077 31.0065 374.698C31.859 377.377 32.9495 379.975 34.2651 382.46L34.3405 382.602C35.9674 385.675 37.9173 388.566 40.157 391.226L44.7878 396.725L46.9744 398.693C52.1558 403.356 57.988 407.241 64.2878 410.225L71.0737 413.225L77.7878 415.225L80.7117 415.712C82.7589 416.053 84.8308 416.225 86.9063 416.225C88.8245 416.225 90.7399 416.078 92.6358 415.787L93.0086 415.729C95.1914 415.394 97.3448 414.889 99.4494 414.219L101.354 413.613C105.302 412.357 109.127 410.744 112.783 408.794L114.788 407.725C119.105 405.234 123.1 402.223 126.683 398.759L128.788 396.725C135.804 390.985 140.119 382.588 140.703 373.542L140.788 372.225V368.314C140.788 362.97 139.768 357.676 137.784 352.715C136.459 349.402 134.717 346.271 132.6 343.398L132.443 343.186C130.018 339.895 127.147 336.957 123.912 334.457L122.989 333.743C119.546 331.083 115.68 329.022 111.553 327.647C108.719 326.702 105.786 326.088 102.811 325.818L100.889 325.643C97.8335 325.365 94.7553 325.47 91.7257 325.955L91.0661 326.06C86.2702 326.828 81.696 328.619 77.6549 331.313L76.0808 332.363C74.2299 333.597 72.5805 335.109 71.1908 336.846C69.9284 338.424 68.8934 340.171 68.1161 342.037L66.7878 345.225L65.677 348.335C64.7577 350.909 64.2878 353.622 64.2878 356.355V357.004C64.2878 359.137 64.6317 361.257 65.3062 363.28C66.2806 366.203 67.922 368.859 70.1007 371.038L72.5112 373.448C73.0256 373.963 73.6195 374.391 74.2701 374.716L75.2878 375.225C75.9369 375.549 76.4632 376.076 76.7878 376.725L73.5311 369.234C72.3925 366.616 72.0243 363.727 72.4697 360.906C72.9994 357.551 74.651 354.475 77.1546 352.18L77.5709 351.799C78.7099 350.755 79.989 349.874 81.371 349.183L82.5695 348.584C85.0329 347.352 87.6753 346.517 90.399 346.108L90.9074 346.032C94.4497 345.501 98.0659 345.766 101.493 346.809L103.331 347.368C106.249 348.256 108.875 349.911 110.936 352.159C112.488 353.852 113.682 355.841 114.446 358.007L114.614 358.481C115.712 361.593 116.003 364.932 115.461 368.187L115.312 369.08C114.964 371.167 114.325 373.208 113.423 375.122C112.612 376.843 111.588 378.47 110.383 379.942L110.064 380.332C108.225 382.58 106.04 384.519 103.59 386.078L102.548 386.741C98.4204 389.368 93.788 391.1 88.9497 391.826L87.822 391.995C86.8006 392.148 85.7693 392.225 84.7365 392.225C81.1643 392.225 77.6523 391.305 74.5389 389.554L73.5549 389C72.0475 388.152 70.6318 387.151 69.3302 386.012L67.7814 384.657C64.7988 382.047 62.1741 379.054 59.9757 375.757L58.2878 373.225L57.1522 371.048C53.9686 364.946 52.4951 358.097 52.8877 351.226C53.1522 346.597 54.2582 342.056 56.1514 337.824L56.5155 337.01C59.9545 329.323 65.6829 322.746 72.7878 318.225L75.5241 316.857C79.0136 315.112 82.7444 313.899 86.5927 313.257C88.7192 312.903 90.8712 312.725 93.0269 312.725H94.9609C102.126 312.725 109.237 313.957 115.984 316.366L119.788 317.725L155.583 330.334C161.043 332.258 166.659 333.703 172.369 334.655L184.788 336.725L195.84 338.371C204.091 339.6 212.481 339.573 220.724 338.29L229.234 336.967C230.266 336.806 231.274 336.519 232.237 336.113L242.25 331.885C247.074 329.849 252.262 333.892 251.466 339.067C251.348 339.833 251.098 340.573 250.727 341.253L248.429 345.466C246.354 349.271 243.573 352.644 240.235 355.407L230.788 363.225L211.288 377.725L192.788 388.725L173.788 401.975L163.707 409.536C157.79 413.973 152.522 419.216 148.056 425.111L146.907 426.627C143.839 430.678 141.267 435.081 139.246 439.744C136.951 445.04 135.388 450.624 134.6 456.341L133.788 462.225V463.52C133.788 471.264 135.142 478.948 137.788 486.225L139.879 491.371C142.774 498.497 147.379 504.801 153.288 509.725L157.511 512.892C162.666 516.759 168.374 519.827 174.442 521.994C177.668 523.146 180.98 524.038 184.347 524.662L185.579 524.89C190.375 525.778 195.242 526.225 200.119 526.225H203.246C211.858 526.225 220.387 524.543 228.354 521.275L230.236 520.503C233.924 518.99 237.415 517.036 240.634 514.684L240.769 514.585C246.06 510.718 250.515 505.821 253.864 500.188C257.759 493.638 260.058 486.264 260.576 478.661L260.772 475.794C261.114 470.781 260.636 465.747 259.357 460.888L258.977 459.444C257.214 452.743 253.761 446.608 248.948 441.623C244.569 437.087 239.19 433.636 233.241 431.546L232.206 431.183C226.649 429.23 220.76 428.398 214.88 428.734C209.204 429.058 203.643 430.465 198.496 432.877L194.169 434.906C191.593 436.113 189.193 437.663 187.034 439.514C184.552 441.642 182.416 444.142 180.702 446.927L179.288 449.225L177.592 452.617C176.725 454.351 176.051 456.173 175.581 458.053C175.054 460.16 174.788 462.323 174.788 464.494V465.225V469.225L174.837 469.613C175.137 472.017 175.622 474.395 176.288 476.725L176.776 477.863C177.447 479.429 178.352 480.883 179.46 482.176C180.342 483.205 181.346 484.123 182.448 484.911L184.288 486.225L185.007 486.667C188.787 488.993 193.138 490.225 197.576 490.225H198.347C199.967 490.225 201.58 490.009 203.143 489.583C205.223 489.015 207.186 488.083 208.941 486.83L209.788 486.225L211.854 484.388C213.47 482.952 214.895 481.314 216.094 479.515L217.265 477.76C217.28 477.737 217.294 477.712 217.305 477.686L217.576 477.076C217.785 476.606 217.137 476.236 216.838 476.655C216.805 476.701 216.763 476.74 216.714 476.77L213.104 478.992C211.238 480.14 209.206 480.995 207.08 481.527L206.596 481.648C205.063 482.031 203.489 482.225 201.909 482.225H201.444C200.343 482.225 199.246 482.104 198.172 481.866L197.388 481.692C196.001 481.383 194.687 480.809 193.519 480C190.556 477.949 188.788 474.574 188.788 470.971V470.018C188.788 468.828 188.954 467.645 189.281 466.501L189.884 464.39C190.482 462.298 191.457 460.332 192.763 458.591C194.424 456.377 196.577 454.581 199.052 453.343L199.753 452.993C201.435 452.151 203.223 451.538 205.068 451.17L208.038 450.577C210.609 450.063 213.24 449.909 215.854 450.118C221.435 450.564 226.76 452.653 231.156 456.121L231.288 456.225L234.219 458.93C236.566 461.097 238.38 463.779 239.517 466.764C240.14 468.398 240.552 470.104 240.745 471.842L240.786 472.205C241.118 475.191 240.875 478.212 240.071 481.107L239.948 481.549C239.18 484.314 237.958 486.932 236.333 489.296L235.568 490.408C234.053 492.612 232.284 494.629 230.297 496.417L230.187 496.515C228.923 497.654 227.577 498.699 226.162 499.642L224.237 500.926C220.956 503.113 217.366 504.794 213.585 505.915C208.441 507.439 203.04 507.895 197.714 507.256L197.561 507.238C194.721 506.897 191.925 506.253 189.221 505.317L184.716 503.758C181.778 502.741 178.985 501.313 176.438 499.53C172.4 496.703 169.02 493.005 166.574 488.726C165.057 486.071 163.912 483.221 163.17 480.255L162.171 476.257C161.583 473.906 161.173 471.513 160.943 469.1L160.757 467.154C160.446 463.885 160.6 460.587 161.215 457.36C161.925 453.629 163.243 450.039 165.116 446.734L166.294 444.655C169.265 439.413 173.173 434.761 177.824 430.93L182.222 427.309C185.925 424.259 189.895 421.549 194.084 419.211L230.788 398.725L264.788 374.225L281.181 359.761C281.584 359.405 281.939 358.998 282.237 358.551C284.179 355.638 288.148 354.91 290.997 356.946L299.788 363.225L318.288 377.725L336.288 390.225L350.288 399.725L366.788 409.225L383.788 419.225L389.813 423.606C393.121 426.013 396.181 428.744 398.945 431.76L401.185 434.204C404.233 437.529 406.715 441.331 408.531 445.46C410.357 449.608 411.486 454.029 411.873 458.545L411.987 459.885C412.516 466.049 411.78 472.34 409.876 478.227C408.181 483.466 405.525 488.429 402.085 492.729L401.467 493.501C398.7 496.959 395.375 499.93 391.627 502.289L390.36 503.087C386.037 505.809 381.145 507.498 376.063 508.024C371.593 508.486 367.075 508.038 362.783 506.706L361.074 506.176C356.914 504.885 353.007 502.889 349.523 500.276L348.741 499.69C344.82 496.749 341.589 492.986 339.274 488.666L338.667 487.532C336.449 483.391 335.288 478.767 335.288 474.07C335.288 470.863 335.829 467.679 336.888 464.652L336.989 464.366C338.178 460.967 339.98 457.816 342.306 455.067L342.793 454.492C343.787 453.317 344.9 452.249 346.115 451.304L346.78 450.787C348.111 449.752 349.591 448.924 351.17 448.332C352.246 447.928 353.36 447.637 354.496 447.462L356.525 447.15C358.364 446.867 360.223 446.725 362.084 446.725H363.98C365.183 446.725 366.384 446.824 367.571 447.022C370.356 447.486 373.024 448.486 375.429 449.965L376.188 450.433C377.583 451.291 378.873 452.31 380.031 453.468L380.722 454.159C382.088 455.524 383.19 457.13 383.975 458.895C384.515 460.11 384.899 461.388 385.117 462.7L385.394 464.36C385.656 465.934 385.788 467.527 385.788 469.122V470.725C385.788 472.715 385.511 474.696 384.964 476.609L384.788 477.225L384.127 478.877C383.237 481.103 382.118 483.23 380.788 485.225L378.288 488.225C376.96 489.553 375.473 490.714 373.863 491.68L373.788 491.725L377.288 490.225C380.947 488.562 384.445 486.565 387.737 484.26L387.788 484.225L389.436 482.989C391.002 481.814 392.483 480.53 393.867 479.146L394.921 478.092C395.831 477.182 396.668 476.193 397.416 475.146C398.325 473.873 399.108 472.505 399.743 471.076C400.438 469.513 400.957 467.879 401.293 466.202L401.456 465.383C402.008 462.624 402.179 459.802 401.963 456.997L401.788 454.725C400.802 450.121 398.757 445.811 395.816 442.135L394.288 440.225L389.288 435.225C385.648 432.247 381.524 429.916 377.096 428.335L376.788 428.225L373.296 427.294C370.628 426.582 367.91 426.072 365.165 425.767C361.92 425.406 358.65 425.334 355.392 425.551L352.788 425.725L352.655 425.741C350.087 426.063 347.567 426.695 345.15 427.624C343.246 428.356 341.417 429.269 339.687 430.35L338.026 431.388C335.539 432.943 333.186 434.705 330.993 436.654L329.788 437.725L325.288 442.725L323.941 444.361C320.204 448.898 317.335 454.084 315.476 459.66L315.302 460.182C314.627 462.207 314.112 464.283 313.761 466.389C312.79 472.211 313.092 478.173 314.645 483.867L315.288 486.225L316.664 490.746C318.074 495.378 320.098 499.799 322.684 503.893L322.759 504.013C324.11 506.151 325.614 508.189 327.261 510.11C331.573 515.14 336.803 519.304 342.673 522.379L344.288 523.225L354.788 527.225L365.788 529.725L370.336 530.281C375.469 530.908 380.66 530.889 385.788 530.225L398.288 527.225C406.866 524.255 414.758 519.586 421.489 513.495L421.788 513.225L425.103 509.358C426.89 507.272 428.519 505.055 429.975 502.726C433.488 497.105 435.954 490.894 437.254 484.395L437.346 483.935C438.303 479.148 438.647 474.258 438.369 469.384L437.788 459.225L436.446 452.249C435.676 448.243 434.513 444.322 432.973 440.544C430.86 435.355 428.053 430.476 424.631 426.04L421.725 422.273C418.108 417.584 414.069 413.236 409.66 409.283L401.788 402.225L367.788 379.225L341.069 360.39C338.554 358.617 336.211 356.611 334.073 354.399L324.723 344.726C323.466 343.427 322.663 341.757 322.432 339.964C321.657 333.957 327.303 329.129 333.117 330.829L351.402 336.174C352.657 336.54 353.943 336.788 355.244 336.914L368.788 338.225L374.623 338.549C382.703 338.998 390.808 338.464 398.759 336.96L405.288 335.725L425.788 329.225L454.976 317.063C463.36 313.57 472.535 312.414 481.524 313.719L484.313 314.124C493.688 315.485 502.332 319.966 508.848 326.843L509.03 327.036C514.108 332.396 517.652 339.024 519.288 346.225L519.353 346.716C519.974 351.366 519.952 356.08 519.288 360.725L519.252 360.922C517.966 367.995 514.81 374.594 510.111 380.035L509.433 380.82C508.339 382.087 507.134 383.256 505.834 384.312C501.876 387.528 497.128 389.624 492.084 390.381L491.932 390.403C490.505 390.617 489.063 390.725 487.62 390.725H485.212C481.951 390.725 478.711 390.199 475.617 389.168C472.747 388.211 470.037 386.831 467.575 385.073L465.648 383.697C464.743 383.05 463.893 382.329 463.106 381.543L463.042 381.479C461.549 379.986 460.307 378.262 459.362 376.373C457.998 373.645 457.288 370.637 457.288 367.587V366.225L457.655 361.821C457.744 360.758 457.908 359.703 458.148 358.665C458.898 355.413 460.37 352.372 462.455 349.766L463.346 348.653C464.635 347.041 466.131 345.607 467.795 344.386L468.016 344.225C471.144 341.931 474.813 340.487 478.666 340.033C480.408 339.828 482.168 339.828 483.91 340.033L486.745 340.367C488.748 340.603 490.672 341.287 492.373 342.37C494.285 343.587 495.857 345.268 496.942 347.258L497.246 347.815C497.938 349.082 498.453 350.438 498.777 351.844L498.999 352.806C499.515 355.042 499.404 357.377 498.678 359.553L498.362 360.502C498.313 360.65 498.249 360.793 498.172 360.929L494.843 366.754C494.677 367.045 494.988 367.375 495.288 367.225L495.858 366.972C498.471 365.81 500.961 364.387 503.288 362.725L504.519 361.67C506.023 360.38 507.329 358.875 508.392 357.204L508.764 356.619C509.772 355.035 510.496 353.287 510.904 351.455C511.159 350.305 511.288 349.131 511.288 347.953V347.476C511.288 345.325 510.912 343.191 510.177 341.169C509.587 339.548 508.773 338.017 507.758 336.621L507.131 335.759C505.907 334.076 504.485 332.545 502.896 331.201L502.316 330.71C499.976 328.73 497.366 327.093 494.565 325.848L494.277 325.72C491.299 324.397 488.149 323.501 484.92 323.061L484.46 322.998C480.7 322.486 476.884 322.542 473.141 323.166L469.788 323.725L466.055 324.762C462.561 325.732 459.223 327.194 456.14 329.102C452.27 331.498 448.857 334.565 446.062 338.158L445.236 339.221C443.94 340.886 442.813 342.675 441.869 344.562C439.838 348.624 438.694 353.072 438.513 357.609L438.44 359.429C438.339 361.954 438.474 364.483 438.845 366.983L439.206 369.42C439.923 374.263 441.362 378.97 443.474 383.387L443.551 383.547C445.038 386.656 446.86 389.594 448.984 392.308L449.69 393.211C453.056 397.512 457.235 401.108 461.989 403.795C464.845 405.409 467.882 406.68 471.036 407.582L471.627 407.75C475.056 408.73 478.587 409.315 482.149 409.493L482.389 409.505C485.316 409.651 488.25 409.534 491.156 409.155L492.559 408.972C496.371 408.475 500.13 407.639 503.793 406.473L509.288 404.725L509.435 404.661C516.926 401.404 523.679 396.663 529.288 390.725L532.258 386.93C536.239 381.842 539.188 376.025 540.937 369.806C542.165 365.439 542.788 360.925 542.788 356.389V352.294C542.788 346.935 542.131 341.596 540.831 336.396L540.678 335.784C538.769 328.147 535.428 320.942 530.834 314.55L530.572 314.186C527.727 310.227 524.4 306.639 520.667 303.503C516.108 299.673 510.992 296.56 505.495 294.27L504.011 293.651C498.552 291.376 492.823 289.811 486.965 288.994L485.079 288.731C477.915 287.731 470.652 287.661 463.471 288.523L459.366 289.015C452.665 289.82 446.062 291.3 439.658 293.435L426.788 297.725L411.68 304.4C407.425 306.281 403.033 307.834 398.542 309.048L395.011 310.003C389.553 311.478 383.924 312.225 378.27 312.225C374.954 312.225 371.642 311.968 368.365 311.456L357.288 309.725L350.014 307.906C349.531 307.786 349.06 307.621 348.606 307.415L345.036 305.792C344.276 305.447 343.788 304.689 343.788 303.854C343.788 302.678 344.741 301.725 345.917 301.725H357.538C358.37 301.725 359.2 301.649 360.018 301.499L369.689 299.726C382.289 297.416 394.286 292.56 404.944 285.454C411.151 281.316 416.88 276.417 421.94 270.935C428.764 263.543 434.42 255.064 438.605 245.915L453.788 212.725L464.408 192.623C466.645 188.388 469.583 184.562 473.098 181.308L473.551 180.889C478.623 176.193 484.823 172.888 491.549 171.295C497.304 169.932 503.289 169.859 509.075 171.081L516.013 172.547C528.485 175.182 539.033 183.447 544.575 194.927L545.409 196.655C548.269 202.578 549.38 209.195 548.611 215.727C548.068 220.345 546.599 224.805 544.292 228.842L542.384 232.181C540.669 235.183 538.402 237.834 535.702 239.994C533.44 241.803 530.887 243.25 528.176 244.267C525.61 245.229 522.898 245.812 520.163 245.983L516.288 246.225L513.938 246.068C510.532 245.841 507.194 245.008 504.081 243.607L503.23 243.224C500.298 241.905 497.661 240.011 495.473 237.655C493.37 235.39 491.722 232.739 490.621 229.85L489.808 227.715C488.803 225.077 488.288 222.278 488.288 219.455V219.039C488.288 214.914 489.46 210.875 491.666 207.391C495.499 201.339 502.063 197.56 509.221 197.285L510.788 197.225C519.003 197.553 527.021 199.835 534.179 203.88L534.788 204.225C535.133 204.484 535.571 204.052 535.318 203.703L532.788 200.225L528.288 195.225L526.251 193.358C523.622 190.948 520.669 188.916 517.479 187.32L516.885 187.024C515.158 186.16 513.353 185.458 511.496 184.927C508.704 184.129 505.815 183.725 502.912 183.725H502.638C499.75 183.725 496.875 184.102 494.084 184.846L493.762 184.932C491.783 185.459 489.853 186.156 487.993 187.015L487.725 187.138C485.439 188.193 483.263 189.471 481.226 190.951L480.966 191.141C479.516 192.195 478.151 193.362 476.883 194.629C474.828 196.685 473.042 198.993 471.568 201.498L470.542 203.244C469.376 205.225 468.436 207.33 467.739 209.521C466.132 214.571 465.856 219.951 466.937 225.14L467.788 229.225C472.199 243.404 482.974 254.713 496.923 259.806L501.055 261.314C504.524 262.581 508.163 263.324 511.852 263.518C514.469 263.655 517.093 263.516 519.68 263.102L521.556 262.802C526.027 262.087 530.393 260.823 534.555 259.039L535.3 258.72C542.233 255.748 548.562 251.53 553.972 246.274L556.022 244.283C560.822 239.62 564.69 234.086 567.42 227.977C571.576 218.675 572.948 208.368 571.369 198.304L570.869 195.114C564.315 153.337 519.583 129.463 481.229 147.27L473.788 150.725C457.823 159.848 444.967 173.555 436.885 190.071L425.117 214.117C418.324 228 408.405 240.119 396.139 249.523L385.282 257.846C384.954 258.098 384.594 258.305 384.212 258.463C379.417 260.443 375.401 254.364 379.103 250.73L388.788 241.225L395.033 233.939C400.844 227.16 405.72 219.634 409.532 211.56L412.288 205.725L415.544 195.523C418.356 186.711 419.788 177.516 419.788 168.267C419.788 162.585 419.248 156.916 418.175 151.337L413.756 128.358C412.781 123.288 411.197 118.354 409.039 113.664L393.125 79.0768C383.802 58.816 395.971 35.1835 417.879 31.0038C436.183 27.5117 453.93 39.2582 457.868 57.4713L458.248 59.2291C458.607 60.8883 458.788 62.581 458.788 64.2786C458.788 70.0473 456.701 75.6212 452.912 79.9713L451.497 81.5957C447.458 86.2335 442.076 89.5003 436.098 90.9434L424.2 93.8152C418.985 95.0741 413.561 95.2138 408.288 94.225C409.619 94.4746 410.929 94.8278 412.205 95.2812L427.656 100.77C434.951 103.362 442.796 104.004 450.415 102.632L452.527 102.252C459.867 100.931 466.645 97.4476 471.992 92.2488C478.319 86.098 482.269 77.9103 483.147 69.1304L483.542 65.1851C484.965 50.9504 480.006 36.817 470 26.5928L468.219 24.7731C456.593 12.8927 440.124 7.05983 423.611 8.97431L420.212 9.36848C416.935 9.74842 413.694 10.3947 410.522 11.301L406.596 12.4228C400.103 14.2778 393.966 17.206 388.44 21.0861C365.72 37.0383 356.763 66.3998 366.71 92.3174L379.324 125.185C383.271 135.47 385.442 146.352 385.744 157.364C386.415 181.864 377.811 205.713 361.653 224.14L344.17 244.079C342.927 245.496 341.421 246.658 339.735 247.501C332.38 251.179 323.441 248.037 320.005 240.566L317.989 236.183C315.933 231.715 315.669 226.629 317.249 221.972L322.108 207.651C323.556 203.382 325.504 199.299 327.911 195.488L334.174 185.573C339.552 177.056 343.614 167.776 346.22 158.047L347.478 153.351C349.011 147.625 349.788 141.723 349.788 135.795C349.788 126.837 348.014 117.968 344.569 109.699L344.175 108.754C339.651 97.8956 332.569 88.2923 323.532 80.7619L315.922 74.4201C312.192 71.3114 307.973 68.8411 303.436 67.109C290.443 62.1478 275.87 63.6156 264.126 71.068L261.697 72.6094C258.436 74.6794 255.426 77.1221 252.729 79.8882L250.384 82.2929C241.775 91.1234 235.366 101.858 231.677 113.626L231.384 114.561C228.346 124.254 227.121 134.424 227.771 144.561L227.943 147.236C228.829 161.068 232.668 174.55 239.202 186.774L244.788 197.225L252.739 211.802C257.238 220.05 258.137 229.788 255.224 238.72L252.957 245.672C252.519 247.015 251.724 248.214 250.656 249.139C247.414 251.949 242.508 251.603 239.692 248.365L206.426 210.108C192.992 194.66 188.601 173.318 194.846 153.821L209.288 108.725L214.788 82.1423C217.08 71.062 216.397 59.5723 212.808 48.8418L211.485 44.8859C203.345 20.5509 180.277 4.3771 154.625 5.0184L151.812 5.08874C131.024 5.60842 112.385 18.0274 103.901 37.0115L98.73 48.5803C88.965 70.4289 99.4595 96.0038 121.757 104.696L123.816 105.499C133.949 109.449 145.306 108.754 154.882 103.598L156.501 102.725C162.529 99.4798 167.339 94.3642 170.208 88.1486C173.175 81.7198 173.896 74.4806 172.256 67.5927L170.881 61.814C170.154 58.7618 169.134 55.7868 167.836 52.9305L164.788 46.225L166.223 50.3495C167.902 55.1784 168.259 60.3688 167.257 65.3823L166.883 67.2523C166.165 70.8405 164.537 74.1842 162.156 76.9625C160.589 78.791 158.723 80.3412 156.639 81.5476L150.004 85.388C145.967 87.7243 141.286 88.6994 136.653 88.1693C124.819 86.8154 116.282 76.1839 117.516 64.3366L117.788 61.725L118.02 60.2352C120.029 47.3174 129.039 36.5806 141.412 32.3593C154.942 27.743 170.03 31.903 179.411 42.691C188.176 52.7718 190.669 67.0235 185.707 79.4269L168.839 121.596C166.809 126.674 165.198 131.909 164.023 137.249L160.288 154.225L159.422 159.532C157.355 172.19 157.935 185.139 161.124 197.561C164.202 209.549 169.647 220.8 177.139 230.652L201.805 263.09C202.124 263.509 202.356 263.987 202.489 264.496C203.432 268.112 199.329 270.921 196.3 268.733L179.601 256.673C178.73 256.044 177.952 255.295 177.291 254.448L167.637 242.079C164.078 237.518 160.921 232.657 158.202 227.551Z" fill="url(#paint0_linear_119_145)" fill-opacity="0.16" shape-rendering="crispEdges"/>
  </g>
  <defs>
    <filter id="filter0_dd_119_145" x="0" y="0" width="577.006" height="535.738" filterUnits="userSpaceOnUse" color-interpolation-filters="sRGB">
      <feFlood flood-opacity="0" result="BackgroundImageFix"/>
      <feColorMatrix in="SourceAlpha" type="matrix" values="0 0 0 0 0 0 0 0 0 0 0 0 0 0 0 0 0 0 127 0" result="hardAlpha"/>
      <feOffset dx="-1" dy="1"/>
      <feGaussianBlur stdDeviation="2"/>
      <feComposite in2="hardAlpha" operator="out"/>
      <feColorMatrix type="matrix" values="0 0 0 0 1 0 0 0 0 0.3 0 0 0 0 0 0 0 0 0.8 0"/>
      <feBlend mode="normal" in2="BackgroundImageFix" result="effect1_dropShadow_119_145"/>
      <feColorMatrix in="SourceAlpha" type="matrix" values="0 0 0 0 0 0 0 0 0 0 0 0 0 0 0 0 0 0 127 0" result="hardAlpha"/>
      <feOffset dx="1" dy="-1"/>
      <feGaussianBlur stdDeviation="2"/>
      <feComposite in2="hardAlpha" operator="out"/>
      <feColorMatrix type="matrix" values="0 0 0 0 1 0 0 0 0 0 0 0 0 0 0.72 0 0 0 0.8 0"/>
      <feBlend mode="normal" in2="effect1_dropShadow_119_145" result="effect2_dropShadow_119_145"/>
      <feBlend mode="normal" in="SourceGraphic" in2="effect2_dropShadow_119_145" result="shape"/>
    </filter>
    <linearGradient id="paint0_linear_119_145" x1="5" y1="5" x2="674.73" y2="285.26" gradientUnits="userSpaceOnUse">
      <stop stop-opacity="0"/>
      <stop offset="0.990007" stop-color="#FF4D00"/>
    </linearGradient>
  </defs>
</svg>