<svg xmlns="http://www.w3.org/2000/svg" width="265" height="342" viewBox="0 0 265 342" fill="none">
  <g filter="url(#filter0_dd_121_184)">
    <path d="M154.5 336.225H148.456C147.82 336.225 147.185 336.17 146.559 336.06C142.793 335.401 139.64 332.836 138.228 329.284L112.488 264.496C112.034 263.561 111.487 262.673 110.858 261.845L87.1384 230.652C79.6464 220.8 74.2014 209.549 71.1234 197.561C67.9344 185.139 67.3544 172.19 69.4214 159.532L70.2874 154.225L74.0224 137.249C75.1974 131.909 76.8084 126.674 78.8384 121.596L95.7064 79.4269C100.668 67.0235 98.1754 52.7718 89.4104 42.691C80.0294 31.903 64.9414 27.743 51.4114 32.3593C39.0384 36.5806 30.0284 47.3174 28.0194 60.2352L27.7874 61.725L27.5154 64.3366C26.2814 76.1839 34.8184 86.8154 46.6524 88.1693C51.2854 88.6994 55.9664 87.7243 60.0034 85.388L66.6384 81.5476C68.7224 80.3412 70.5884 78.791 72.1554 76.9625C74.5364 74.1842 76.1644 70.8405 76.8824 67.2523L77.2564 65.3823C78.2584 60.3688 77.9014 55.1784 76.2224 50.3495L74.7874 46.225L77.8354 52.9305C79.1334 55.7868 80.1534 58.7618 80.8804 61.814L82.2554 67.5927C83.8954 74.4806 83.1744 81.7198 80.2074 88.1486C77.3384 94.3642 72.5284 99.4798 66.5004 102.725L64.8814 103.598C55.3054 108.754 43.9484 109.449 33.8154 105.499L31.7564 104.696C9.45913 96.0038 -1.03537 70.4289 8.72963 48.5803L13.9001 37.0115C22.3844 18.0274 41.0234 5.60842 61.8114 5.08874L64.6244 5.0184C90.2764 4.3771 113.344 20.5509 121.484 44.8859L122.807 48.8418C126.396 59.5723 127.079 71.062 124.787 82.1423L119.287 108.725L104.845 153.821C98.6004 173.318 102.991 194.66 116.425 210.108L149.691 248.365C152.507 251.603 157.413 251.949 160.655 249.139C161.723 248.214 162.518 247.015 162.956 245.672L165.223 238.72C168.136 229.788 167.237 220.05 162.738 211.802L154.787 197.225L149.201 186.774C142.667 174.55 138.828 161.068 137.942 147.236L137.77 144.561C137.12 134.424 138.345 124.254 141.383 114.561L141.676 113.626C145.365 101.858 151.774 91.1234 160.383 82.2929L162.728 79.8882C165.425 77.1221 168.435 74.6794 171.696 72.6094L174.125 71.068C185.869 63.6156 200.442 62.1478 213.435 67.109C217.972 68.8411 222.191 71.3114 225.921 74.4201L233.531 80.7619C242.568 88.2923 249.65 97.8956 254.174 108.754L254.568 109.699C258.013 117.968 259.787 126.837 259.787 135.795C259.787 141.723 259.01 147.625 257.477 153.351L256.219 158.047C253.613 167.776 249.551 177.056 244.173 185.573L237.91 195.488C235.503 199.299 233.555 203.382 232.107 207.651L227.248 221.972C225.787 227.225 226.787 232.725 227.248 237.225L227.988 242.725L235.287 275.225L237.287 285.725C237.949 291.022 237.726 296.391 236.626 301.614L236.287 303.225L233.287 312.225L230.034 319.094C229.205 320.844 228.202 322.505 227.04 324.054C224.277 327.739 220.411 330.445 216.003 331.781L212.213 332.929C208.274 334.123 204.217 334.88 200.113 335.188L186.287 336.225H154.5Z" fill="url(#paint0_linear_121_184)" fill-opacity="0.16" shape-rendering="crispEdges"/>
  </g>
  <defs>
    <filter id="filter0_dd_121_184" x="0.0712891" y="0" width="264.716" height="341.225" filterUnits="userSpaceOnUse" color-interpolation-filters="sRGB">
      <feFlood flood-opacity="0" result="BackgroundImageFix"/>
      <feColorMatrix in="SourceAlpha" type="matrix" values="0 0 0 0 0 0 0 0 0 0 0 0 0 0 0 0 0 0 127 0" result="hardAlpha"/>
      <feOffset dx="-1" dy="1"/>
      <feGaussianBlur stdDeviation="2"/>
      <feComposite in2="hardAlpha" operator="out"/>
      <feColorMatrix type="matrix" values="0 0 0 0 1 0 0 0 0 0.3 0 0 0 0 0 0 0 0 0.8 0"/>
      <feBlend mode="normal" in2="BackgroundImageFix" result="effect1_dropShadow_121_184"/>
      <feColorMatrix in="SourceAlpha" type="matrix" values="0 0 0 0 0 0 0 0 0 0 0 0 0 0 0 0 0 0 127 0" result="hardAlpha"/>
      <feOffset dx="1" dy="-1"/>
      <feGaussianBlur stdDeviation="2"/>
      <feComposite in2="hardAlpha" operator="out"/>
      <feColorMatrix type="matrix" values="0 0 0 0 1 0 0 0 0 0 0 0 0 0 0.72 0 0 0 0.8 0"/>
      <feBlend mode="normal" in2="effect1_dropShadow_121_184" result="effect2_dropShadow_121_184"/>
      <feBlend mode="normal" in="SourceGraphic" in2="effect2_dropShadow_121_184" result="shape"/>
    </filter>
    <linearGradient id="paint0_linear_121_184" x1="5.07129" y1="5" x2="329.716" y2="101.869" gradientUnits="userSpaceOnUse">
      <stop stop-opacity="0"/>
      <stop offset="0.990007" stop-color="#FF4D00"/>
    </linearGradient>
  </defs>
</svg>