<svg xmlns="http://www.w3.org/2000/svg" width="350" height="527" viewBox="0 0 350 527" fill="none">
  <g filter="url(#filter0_dd_120_169)">
    <path d="M124.409 168.354L153.414 222.826C156.133 227.932 159.29 232.793 162.849 237.354L172.503 249.723C173.164 250.57 173.942 251.319 174.813 251.948L191.512 264.008C194.541 266.196 198.644 263.387 197.701 259.771C197.568 259.262 197.336 258.784 197.017 258.365L172.351 225.927C164.859 216.075 159.414 204.824 156.336 192.836C153.147 180.414 152.567 167.465 154.634 154.807L155.5 149.5L159.235 132.524C160.41 127.184 162.021 121.949 164.051 116.871L180.919 74.7018C185.881 62.2984 183.388 48.0467 174.623 37.9659C165.242 27.1779 150.154 23.0179 136.624 27.6342C124.251 31.8555 115.241 42.5923 113.232 55.5101L113 56.9999L112.728 59.6115C111.494 71.4588 120.031 82.0903 131.865 83.4442C136.498 83.9743 141.179 82.9992 145.216 80.6629L151.851 76.8225C153.935 75.6161 155.801 74.0659 157.368 72.2374C159.749 69.4591 161.377 66.1154 162.095 62.5272L162.469 60.6572C163.471 55.6437 163.114 50.4533 161.435 45.6244L160 41.4999L163.048 48.2054C164.346 51.0617 165.366 54.0367 166.093 57.0889L167.468 62.8676C169.108 69.7555 168.387 76.9947 165.42 83.4235C162.551 89.6391 157.741 94.7547 151.713 98.0003L150.094 98.8725C140.518 104.029 129.161 104.724 119.028 100.774L116.969 99.9708C94.6719 91.2787 84.1774 65.7038 93.9424 43.8552L99.1129 32.2864C107.597 13.3023 126.236 0.883325 147.024 0.363638L149.837 0.293307C175.489 -0.348 198.557 15.8258 206.697 40.1608L208.02 44.1167C211.609 54.8472 212.292 66.3369 210 77.4172L204.5 104L190.058 149.096C183.813 168.593 188.204 189.935 201.638 205.383L234.904 243.64C237.72 246.878 242.626 247.224 245.868 244.414C246.936 243.489 247.731 242.29 248.169 240.947L250.436 233.995C253.349 225.063 252.45 215.325 247.951 207.077L240 192.5L234.414 182.049C227.88 169.825 224.041 156.343 223.155 142.511L222.983 139.836C222.333 129.699 223.558 119.529 226.596 109.836L226.889 108.901C230.578 97.1326 236.987 86.3983 245.596 77.5678L247.941 75.1631C250.638 72.397 253.648 69.9543 256.909 67.8843L259.338 66.3429C271.082 58.8905 285.655 57.4227 298.648 62.3839C303.185 64.116 307.404 66.5863 311.134 69.695L318.744 76.0368C327.781 83.5672 334.863 93.1705 339.387 104.029L339.781 104.974C343.226 113.243 345 122.112 345 131.07C345 136.998 344.223 142.9 342.69 148.626L341.432 153.322C338.826 163.051 334.764 172.331 329.386 180.848L323.123 190.763C320.716 194.574 318.768 198.657 317.32 202.926L312.461 217.247C311 222.5 312 228 312.461 232.5L313.201 238L320.5 270.5L322.5 281C323.162 286.296 322.939 291.666 321.839 296.889L321.5 298.5L318.5 307.5L316.615 311.479C314.876 315.15 312.772 318.637 310.334 321.887C308.781 323.959 307.053 325.893 305.17 327.67L278.619 352.722C277.84 353.457 277.195 354.327 276.393 355.036L260 369.5L226 394L189.296 414.486C185.107 416.824 181.137 419.534 177.434 422.584L173.036 426.205C168.385 430.036 164.477 434.688 161.506 439.93L160.328 442.009C158.455 445.314 157.137 448.904 156.427 452.635C155.812 455.862 155.658 459.16 155.969 462.429L156.155 464.375C156.385 466.788 156.795 469.181 157.383 471.532L158.382 475.53C159.124 478.496 160.269 481.346 161.786 484.001C164.232 488.28 167.612 491.978 171.65 494.805C174.197 496.588 176.99 498.016 179.928 499.033L184.433 500.592C187.137 501.528 189.933 502.172 192.773 502.513L192.926 502.531C198.252 503.17 203.653 502.714 208.797 501.19C212.578 500.069 216.168 498.388 219.449 496.201L221.374 494.917C222.789 493.974 224.135 492.929 225.399 491.79L225.509 491.692C227.496 489.904 229.265 487.887 230.78 485.683L231.545 484.571C233.17 482.207 234.392 479.589 235.16 476.824L235.283 476.382C236.087 473.487 236.33 470.466 235.998 467.48L235.957 467.117C235.764 465.379 235.352 463.673 234.729 462.039C233.592 459.054 231.778 456.372 229.431 454.205L226.5 451.5L226.368 451.396C221.972 447.928 216.647 445.839 211.066 445.393C208.452 445.184 205.821 445.338 203.25 445.852L200.28 446.445C198.435 446.813 196.647 447.426 194.965 448.268L194.264 448.618C191.789 449.856 189.636 451.652 187.975 453.866C186.669 455.607 185.694 457.573 185.096 459.665L184.493 461.776C184.166 462.92 184 464.103 184 465.293V466.246C184 469.849 185.768 473.224 188.731 475.275C189.899 476.084 191.213 476.658 192.6 476.967L193.384 477.141C194.458 477.379 195.555 477.5 196.656 477.5H197.121C198.701 477.5 200.275 477.306 201.808 476.923L202.292 476.802C204.418 476.27 206.45 475.415 208.316 474.267L211.926 472.045C211.975 472.015 212.017 471.976 212.05 471.93C212.349 471.511 212.997 471.881 212.788 472.351L212.517 472.961C212.506 472.987 212.492 473.012 212.477 473.035L211.306 474.79C210.107 476.589 208.682 478.227 207.066 479.663L205 481.5L204.153 482.105C202.398 483.358 200.435 484.29 198.355 484.858C196.792 485.284 195.179 485.5 193.559 485.5H192.788C188.35 485.5 183.999 484.268 180.219 481.942L179.5 481.5L177.66 480.186C176.558 479.398 175.554 478.48 174.672 477.451C173.564 476.158 172.659 474.704 171.988 473.138L171.5 472C170.834 469.67 170.349 467.292 170.049 464.888L170 464.5V460.5V459.769C170 457.598 170.266 455.435 170.793 453.328C171.263 451.448 171.937 449.626 172.804 447.892L174.5 444.5L175.914 442.202C177.628 439.417 179.764 436.917 182.246 434.789C184.405 432.938 186.805 431.388 189.381 430.181L193.708 428.152C198.855 425.74 204.416 424.333 210.092 424.009C215.972 423.673 221.861 424.505 227.418 426.458L228.453 426.821C234.402 428.911 239.781 432.362 244.16 436.898C248.973 441.883 252.426 448.018 254.189 454.719L254.569 456.163C255.848 461.022 256.326 466.056 255.984 471.069L255.788 473.936C255.27 481.539 252.971 488.913 249.076 495.463C245.727 501.096 241.272 505.993 235.981 509.86L235.846 509.959C232.627 512.311 229.136 514.265 225.448 515.778L223.566 516.55C215.599 519.818 207.07 521.5 198.458 521.5H195.331C190.454 521.5 185.587 521.053 180.791 520.165L179.559 519.937C176.192 519.313 172.88 518.421 169.654 517.269C163.586 515.102 157.878 512.034 152.723 508.167L148.5 505C142.591 500.076 137.986 493.772 135.091 486.646L133 481.5C130.354 474.223 129 466.539 129 458.795V457.5L129.812 451.616C130.6 445.899 132.163 440.315 134.458 435.019C136.479 430.356 139.051 425.953 142.119 421.902L143.268 420.386C147.734 414.491 153.002 409.248 158.919 404.811L169 397.25L188 384L206.5 373L226 358.5L235.447 350.682C238.785 347.919 241.566 344.546 243.641 340.741L245.939 336.528C246.31 335.848 246.56 335.108 246.678 334.342C247.474 329.167 242.286 325.124 237.462 327.16L227.449 331.388C226.486 331.794 225.478 332.081 224.446 332.242L215.936 333.565C207.693 334.848 199.303 334.875 191.052 333.646L180 332L167.581 329.93C161.871 328.978 156.255 327.533 150.795 325.609L115 313L111.196 311.641C104.449 309.232 97.3379 308 90.1733 308H88.2393C86.0836 308 83.9316 308.178 81.8051 308.532C77.9568 309.174 74.226 310.387 70.7365 312.132L68.0002 313.5C60.8953 318.021 55.1669 324.598 51.7279 332.285L51.3638 333.099C49.4706 337.331 48.3646 341.872 48.1001 346.501C47.7075 353.372 49.181 360.221 52.3646 366.323L53.5002 368.5L55.1881 371.032C57.3865 374.329 60.0112 377.322 62.9938 379.932L64.5426 381.287C65.8442 382.426 67.2599 383.427 68.7673 384.275L69.7513 384.829C72.8647 386.58 76.3767 387.5 79.9489 387.5C80.9817 387.5 82.013 387.423 83.0344 387.27L84.1621 387.101C89.0004 386.375 93.6328 384.643 97.7603 382.016L98.8019 381.353C101.252 379.794 103.437 377.855 105.276 375.607L105.595 375.217C106.8 373.745 107.824 372.118 108.635 370.397C109.537 368.483 110.176 366.442 110.524 364.355L110.673 363.462C111.215 360.207 110.924 356.868 109.826 353.756L109.658 353.282C108.894 351.116 107.7 349.127 106.148 347.434C104.087 345.186 101.461 343.531 98.543 342.643L96.7051 342.084C93.2783 341.041 89.6621 340.776 86.1198 341.307L85.6114 341.383C82.8877 341.792 80.2453 342.627 77.7819 343.859L76.5834 344.458C75.2014 345.149 73.9223 346.03 72.7833 347.074L72.367 347.455C69.8634 349.75 68.2118 352.826 67.6821 356.181C67.2367 359.002 67.6049 361.891 68.7435 364.509L72.0002 372C71.6756 371.351 71.1493 370.824 70.5002 370.5L69.4825 369.991C68.8319 369.666 68.238 369.238 67.7236 368.723L65.3131 366.313C63.1344 364.134 61.493 361.478 60.5186 358.555C59.8441 356.532 59.5002 354.412 59.5002 352.279V351.63C59.5002 348.897 59.9701 346.184 60.8894 343.61L62.0002 340.5L63.3285 337.312C64.1058 335.446 65.1408 333.699 66.4032 332.121C67.7929 330.384 69.4423 328.872 71.2932 327.638L72.8673 326.588C76.9084 323.894 81.4826 322.103 86.2785 321.335L86.9381 321.23C89.9677 320.745 93.0459 320.64 96.1013 320.918L98.0229 321.093C100.998 321.363 103.931 321.977 106.765 322.922C110.892 324.297 114.758 326.358 118.201 329.018L119.124 329.732C122.359 332.232 125.23 335.17 127.655 338.461L127.812 338.673C129.929 341.546 131.671 344.677 132.996 347.99C134.98 352.951 136 358.245 136 363.589V367.5L135.915 368.817C135.331 377.863 131.016 386.26 124 392L121.895 394.034C118.312 397.498 114.317 400.509 110 403L107.995 404.069C104.339 406.019 100.514 407.632 96.566 408.888L94.6618 409.494C92.5572 410.164 90.4038 410.669 88.221 411.004L87.8482 411.062C85.9523 411.353 84.0369 411.5 82.1187 411.5C80.0432 411.5 77.9713 411.328 75.9241 410.987L73.0002 410.5L66.2861 408.5L59.5002 405.5C53.2004 402.516 47.3682 398.631 42.1868 393.968L40.0002 392L35.3694 386.501C33.1297 383.841 31.1798 380.95 29.5529 377.877L29.4775 377.735C28.1619 375.25 27.0714 372.652 26.2189 369.973C24.7486 365.352 24.0002 360.532 24.0002 355.682V354V351.902C24.0002 345.317 24.6507 338.748 25.9421 332.29L26.0002 332L28.8985 323.595C30.2949 319.545 32.1555 315.671 34.4429 312.049C36.1446 309.355 38.0752 306.812 40.2132 304.449L46.5002 297.5C51.1394 293.192 56.4117 289.621 62.1331 286.911L63.0002 286.5L64.0704 286.072C70.0049 283.698 76.1868 281.997 82.5002 281L84.824 280.789C90.5972 280.264 96.4051 280.242 102.182 280.723L105.5 281L112.41 281.934C120.11 282.974 127.663 284.909 134.916 287.698L143.5 291L160.5 299L168.796 302.042C173.253 303.676 177.867 304.848 182.565 305.539C189.154 306.508 195.848 306.522 202.441 305.58L210 304.5C214.083 303.933 214.477 298.186 210.51 297.067L189 291L186.493 290.11C177.876 287.052 169.74 282.776 162.334 277.412C153.725 271.177 146.214 263.552 140.109 254.85L130.593 241.289C127.092 236.299 124.055 230.999 121.519 225.456L108.5 197L100.528 184.354C96.2757 177.609 90.083 172.308 82.7631 169.147C75.7391 166.114 67.9857 165.185 60.4439 166.473L57.7572 166.932C53.6197 167.638 49.643 169.083 46.0173 171.198C38.0027 175.873 32.1736 183.541 29.8123 192.514L29.1597 194.994C27.1079 202.791 27.6166 211.041 30.611 218.527L32.1479 222.369C33.3651 225.412 35.2924 228.12 37.7691 230.266L38.1707 230.614C44.6338 236.216 53.9614 237.038 61.3048 232.654C72.1845 226.158 74.2558 211.261 65.5606 202.044L60.6141 196.801C58.5542 194.617 56.1264 192.813 53.4415 191.47L51.5047 190.502C51.8329 190.666 52.1925 190.756 52.5589 190.768L65.1555 191.188C71.2561 191.392 77.169 193.347 82.1876 196.822C89.6969 202.021 94.6067 210.199 95.6651 219.27L95.8041 220.462C96.8879 229.752 94.1463 239.083 88.2097 246.31L87.4991 247.175C79.4093 257.024 66.8277 262.026 54.1843 260.42L50.0886 259.9C45.393 259.304 40.8225 257.963 36.549 255.928L33.3347 254.397C25.8599 250.838 19.206 245.764 13.7947 239.499L11.0429 236.312C5.77972 230.218 2.26719 222.811 0.879112 214.879C-0.0328456 209.668 -0.00905704 204.336 0.949361 199.133L3.00023 188L5.21348 180.991C11.298 161.723 26.9161 146.974 46.5002 142L60.5777 140.24C67.1659 139.417 73.8322 139.434 80.416 140.293L84.6884 140.851C90.5218 141.611 96.1867 143.343 101.448 145.974C111.239 150.87 119.264 158.691 124.409 168.354Z" fill="url(#paint0_linear_120_169)" fill-opacity="0.16" shape-rendering="crispEdges"/>
  </g>
  <defs>
    <filter id="filter0_dd_120_169" x="-4.7876" y="-4.7251" width="354.788" height="531.225" filterUnits="userSpaceOnUse" color-interpolation-filters="sRGB">
      <feFlood flood-opacity="0" result="BackgroundImageFix"/>
      <feColorMatrix in="SourceAlpha" type="matrix" values="0 0 0 0 0 0 0 0 0 0 0 0 0 0 0 0 0 0 127 0" result="hardAlpha"/>
      <feOffset dx="-1" dy="1"/>
      <feGaussianBlur stdDeviation="2"/>
      <feComposite in2="hardAlpha" operator="out"/>
      <feColorMatrix type="matrix" values="0 0 0 0 1 0 0 0 0 0.3 0 0 0 0 0 0 0 0 0.8 0"/>
      <feBlend mode="normal" in2="BackgroundImageFix" result="effect1_dropShadow_120_169"/>
      <feColorMatrix in="SourceAlpha" type="matrix" values="0 0 0 0 0 0 0 0 0 0 0 0 0 0 0 0 0 0 127 0" result="hardAlpha"/>
      <feOffset dx="1" dy="-1"/>
      <feGaussianBlur stdDeviation="2"/>
      <feComposite in2="hardAlpha" operator="out"/>
      <feColorMatrix type="matrix" values="0 0 0 0 1 0 0 0 0 0 0 0 0 0 0.72 0 0 0 0.8 0"/>
      <feBlend mode="normal" in2="effect1_dropShadow_120_169" result="effect2_dropShadow_120_169"/>
      <feBlend mode="normal" in="SourceGraphic" in2="effect2_dropShadow_120_169" result="shape"/>
    </filter>
    <linearGradient id="paint0_linear_120_169" x1="0.212402" y1="0.274902" x2="449.203" y2="115.516" gradientUnits="userSpaceOnUse">
      <stop stop-opacity="0"/>
      <stop offset="0.990007" stop-color="#FF4D00"/>
    </linearGradient>
  </defs>
</svg>