<svg xmlns="http://www.w3.org/2000/svg" width="84" height="75" viewBox="0 0 84 75" fill="none">
  <g filter="url(#filter0_dd_144_1218)">
    <path d="M-10.5426 0.35417L-17.1383 -3.66067C-18.3314 -4.38703 -18.831 -5.80959 -18.6834 -7.19863L-16.9945 -23.0953C-16.8696 -24.27 -15.2499 -24.4827 -14.826 -23.38C-14.7552 -23.2144 -14.6862 -23.045 -14.6223 -22.8831C-14.3741 -22.2547 -14.0787 -21.6439 -13.7083 -21.0789C-13.3998 -20.6084 -13.0436 -20.1703 -12.6459 -19.7722L-9.37895 -17.0464L-4.14734 -13.4263C-2.59961 -12.3554 -0.971021 -11.4061 0.723088 -10.5871C3.61166 -9.19071 6.67194 -8.1821 9.82467 -7.58766L11.8645 -7.20349C14.4587 -6.71453 17.0861 -6.42322 19.7245 -6.33332L36.7263 -5.02528C40.5253 -4.53438 44.2642 -3.6597 47.8865 -2.41597L50.1052 -1.65348C53.9868 -0.320323 57.6801 1.50923 61.0932 3.78947L61.9918 4.38964C64.7828 6.25383 67.3231 8.46829 69.5502 10.9788L70.1555 11.6616C72.3983 14.1892 74.2431 17.0431 75.6264 20.1258C76.759 22.6499 77.5726 25.3046 78.0483 28.0299L78.0922 28.2806C78.8606 32.6808 78.788 37.1869 77.8771 41.56L77.8041 41.9105C77.184 44.8882 76.201 47.7781 74.8775 50.516L73.8661 52.6081C72.7458 54.9254 71.3127 57.0777 69.6067 59.0055C67.1772 61.7508 64.2339 63.9943 60.9435 65.6104L58.4889 66.8158C54.1567 68.4641 49.5358 69.2184 44.9043 69.0323L44.8134 69.0287L41.5743 68.5645C39.415 68.2556 37.2881 67.7543 35.2178 67.0667L34.4558 66.8137C32.8776 66.2896 31.3497 65.6248 29.8904 64.8273L29.7708 64.7619C27.9949 63.7912 26.3355 62.6202 24.8257 61.2727L24.5652 61.0409C23.1767 59.8011 21.939 58.4017 20.8785 56.8717C19.1134 54.3248 17.8665 51.4556 17.2091 48.4269L17.0714 47.7912C16.6566 45.8801 16.4514 43.9291 16.4595 41.9735L16.4597 41.8727C16.4716 39.0945 16.899 36.3344 17.7288 33.683L18.1462 32.3488C18.5741 30.98 19.1298 29.6546 19.805 28.3896L20.2918 27.4778C21.5048 25.2046 23.1878 23.2147 25.2286 21.641C26.177 20.9101 27.1946 20.2745 28.2679 19.744L28.9524 19.4049C31.2678 18.2596 33.7689 17.5356 36.3378 17.2673C38.3841 17.054 40.4506 17.1314 42.4752 17.4988L44.6384 17.891L46.4895 18.4335C48.5559 19.0392 50.5193 19.953 52.3137 21.1432L52.5332 21.289C54.0742 22.3113 55.4622 23.5471 56.6569 24.9585L56.7724 25.095C57.8959 26.4228 58.8251 27.9038 59.5315 29.4932L59.7066 29.8873C60.1864 30.9664 60.5348 32.0998 60.7444 33.2619L60.8519 33.8572C61.0257 34.821 61.0634 35.8043 60.9645 36.7781C60.8406 37.9927 60.5056 39.1758 59.9744 40.2747L59.8566 40.5184C59.5656 41.1202 59.2098 41.6882 58.7955 42.2127C58.1346 43.0479 57.333 43.7621 56.4268 44.3224L56.0922 44.5294C55.1365 45.1205 54.0975 45.5669 53.0106 45.8545L52.1211 46.0894C50.5218 46.3638 48.8982 46.4758 47.2763 46.4241L46.9226 46.4126C46.7323 46.4152 46.6549 46.1698 46.8116 46.0621L49.951 43.9083C50.0239 43.8579 50.0919 43.8006 50.1535 43.7371L50.5493 43.3303C51.4577 42.3979 52.0911 41.2324 52.3797 39.9626L52.5039 39.4163C52.6856 38.618 52.7574 37.798 52.7168 36.9798L52.699 36.6202C52.6362 35.3355 52.2482 34.0885 51.572 32.9945C50.9704 32.0211 50.1564 31.1965 49.1914 30.5812L47.8255 29.7104C46.9862 29.1754 46.087 28.7408 45.1464 28.4153C43.0658 27.6956 40.8347 27.5272 38.6701 27.9266L38.5174 27.9543C37.3657 28.1671 36.2473 28.5302 35.1906 29.0354L34.4605 29.384C32.7517 30.2004 31.2486 31.3905 30.0623 32.8667C29.6833 33.3377 29.339 33.8362 29.031 34.3573L27.7558 36.5166L27.4194 37.2124C26.6661 38.7706 26.2859 40.4827 26.309 42.2133C26.3253 43.4118 26.534 44.5993 26.928 45.7308L26.9449 45.7793C27.1529 46.3752 27.4091 46.9535 27.7116 47.5076L28.3563 48.6865C29.1799 50.1927 30.2236 51.567 31.4535 52.7648C32.7795 54.0556 34.3049 55.1246 35.9709 55.93L37.2011 56.5247C37.9383 56.8811 38.7017 57.1821 39.4836 57.4252L39.5667 57.4515C42.3306 58.3105 45.2739 58.4123 48.0903 57.7468C49.0153 57.5284 49.9196 57.2288 50.7915 56.8517L51.3317 56.6181C55.0762 54.9989 58.3184 52.407 60.7222 49.111L60.7893 49.0193C62.2757 46.8102 63.4512 44.4073 64.2824 41.8783L64.3705 41.6114C65.3131 37.5284 65.1395 33.267 63.869 29.2744L63.8237 29.1309C62.1932 24.0082 58.8838 19.584 54.4303 16.5733L53.1055 15.6776C48.8354 12.7908 43.8625 11.1154 38.7165 10.8292L10.4428 8.24866C9.29796 8.14416 8.16424 7.94115 7.05425 7.64188L5.08172 7.11005C0.648189 5.91471 -3.62447 4.18578 -7.64156 1.96081L-10.5426 0.35417Z" fill="url(#paint0_linear_144_1218)" fill-opacity="0.16" shape-rendering="crispEdges"/>
  </g>
  <defs>
    <filter id="filter0_dd_144_1218" x="-23.7085" y="-29.1018" width="107.327" height="103.162" filterUnits="userSpaceOnUse" color-interpolation-filters="sRGB">
      <feFlood flood-opacity="0" result="BackgroundImageFix"/>
      <feColorMatrix in="SourceAlpha" type="matrix" values="0 0 0 0 0 0 0 0 0 0 0 0 0 0 0 0 0 0 127 0" result="hardAlpha"/>
      <feOffset dx="-1" dy="1"/>
      <feGaussianBlur stdDeviation="2"/>
      <feComposite in2="hardAlpha" operator="out"/>
      <feColorMatrix type="matrix" values="0 0 0 0 1 0 0 0 0 0.3 0 0 0 0 0 0 0 0 0.8 0"/>
      <feBlend mode="normal" in2="BackgroundImageFix" result="effect1_dropShadow_144_1218"/>
      <feColorMatrix in="SourceAlpha" type="matrix" values="0 0 0 0 0 0 0 0 0 0 0 0 0 0 0 0 0 0 127 0" result="hardAlpha"/>
      <feOffset dx="1" dy="-1"/>
      <feGaussianBlur stdDeviation="2"/>
      <feComposite in2="hardAlpha" operator="out"/>
      <feColorMatrix type="matrix" values="0 0 0 0 1 0 0 0 0 0 0 0 0 0 0.72 0 0 0 0.8 0"/>
      <feBlend mode="normal" in2="effect1_dropShadow_144_1218" result="effect2_dropShadow_144_1218"/>
      <feBlend mode="normal" in="SourceGraphic" in2="effect2_dropShadow_144_1218" result="shape"/>
    </filter>
    <linearGradient id="paint0_linear_144_1218" x1="-13.9573" y1="-33" x2="55.6812" y2="82.8129" gradientUnits="userSpaceOnUse">
      <stop stop-opacity="0"/>
      <stop offset="0.990007" stop-color="#FF4D00"/>
    </linearGradient>
  </defs>
</svg>