<svg xmlns="http://www.w3.org/2000/svg" width="355" height="342" viewBox="0 0 355 342" fill="none">
  <g filter="url(#filter0_dd_121_178)">
    <path d="M129.197 173.079L158.202 227.551C160.921 232.657 164.078 237.518 167.637 242.079L177.291 254.448C177.952 255.295 178.73 256.044 179.601 256.673L196.3 268.733C199.329 270.921 203.432 268.112 202.489 264.496C202.356 263.987 202.124 263.509 201.805 263.09L177.139 230.652C169.647 220.8 164.202 209.549 161.124 197.561C157.935 185.139 157.355 172.19 159.422 159.532L160.288 154.225L164.023 137.249C165.198 131.909 166.809 126.674 168.839 121.596L185.707 79.4269C190.669 67.0235 188.176 52.7718 179.411 42.691C170.03 31.903 154.942 27.743 141.412 32.3593C129.039 36.5806 120.029 47.3174 118.02 60.2352L117.788 61.725L117.516 64.3366C116.282 76.1839 124.819 86.8154 136.653 88.1693C141.286 88.6994 145.967 87.7243 150.004 85.388L156.639 81.5476C158.723 80.3412 160.589 78.791 162.156 76.9625C164.537 74.1842 166.165 70.8405 166.883 67.2523L167.257 65.3823C168.259 60.3688 167.902 55.1784 166.223 50.3495L164.788 46.225L167.836 52.9305C169.134 55.7868 170.154 58.7618 170.881 61.814L172.256 67.5927C173.896 74.4806 173.175 81.7198 170.208 88.1486C167.339 94.3642 162.529 99.4798 156.501 102.725L154.882 103.598C145.306 108.754 133.949 109.449 123.816 105.499L121.757 104.696C99.4595 96.0038 88.965 70.4289 98.73 48.5803L103.901 37.0115C112.385 18.0274 131.024 5.60842 151.812 5.08874L154.625 5.0184C180.277 4.3771 203.345 20.5509 211.485 44.8859L212.808 48.8418C216.397 59.5723 217.08 71.062 214.788 82.1423L209.288 108.725L194.846 153.821C188.601 173.318 192.992 194.66 206.426 210.108L239.692 248.365C242.508 251.603 247.414 251.949 250.656 249.139C251.724 248.214 252.519 247.015 252.957 245.672L255.224 238.72C258.137 229.788 257.238 220.05 252.739 211.802L244.788 197.225L239.202 186.774C232.668 174.55 228.829 161.068 227.943 147.236L227.771 144.561C227.121 134.424 228.346 124.254 231.384 114.561L231.677 113.626C235.366 101.858 241.775 91.1234 250.384 82.2929L252.729 79.8882C255.426 77.1221 258.436 74.6794 261.697 72.6094L264.126 71.068C275.87 63.6156 290.443 62.1478 303.436 67.109C307.973 68.8411 312.192 71.3114 315.922 74.4201L323.532 80.7619C332.569 88.2923 339.651 97.8956 344.175 108.754L344.569 109.699C348.014 117.968 349.788 126.837 349.788 135.795C349.788 141.723 349.011 147.625 347.478 153.351L346.22 158.047C343.614 167.776 339.552 177.056 334.174 185.573L327.911 195.488C325.504 199.299 323.556 203.382 322.108 207.651L317.249 221.972C315.788 227.225 316.788 232.725 317.249 237.225L317.989 242.725L325.288 275.225L327.288 285.725C327.95 291.022 327.726 296.391 326.627 301.614L326.288 303.225L323.288 312.225L320.034 319.094C319.205 320.844 318.202 322.505 317.041 324.054C314.277 327.739 310.411 330.445 306.004 331.781L302.213 332.929C298.275 334.123 294.217 334.88 290.113 335.188L276.288 336.225H244.5H235.546C234.852 336.225 234.163 336.122 233.5 335.919C231.592 335.334 230.025 333.962 229.194 332.147L216.375 304.146C215.692 302.653 214.387 301.535 212.806 301.089L193.788 295.725L191.281 294.835C182.664 291.777 174.528 287.501 167.122 282.137C158.513 275.902 151.002 268.277 144.897 259.575L135.381 246.014C131.88 241.024 128.843 235.724 126.307 230.181L113.288 201.725L105.316 189.079C101.063 182.334 94.8706 177.033 87.5507 173.872C80.5267 170.839 72.7733 169.91 65.2315 171.198L62.5448 171.657C58.4073 172.363 54.4306 173.808 50.8049 175.923C42.7903 180.598 36.9612 188.266 34.5999 197.239L33.9473 199.719C31.8955 207.516 32.4042 215.766 35.3986 223.252L36.9355 227.094C38.1527 230.137 40.08 232.845 42.5567 234.991L42.9583 235.339C49.4214 240.941 58.749 241.763 66.0924 237.379C76.9721 230.883 79.0434 215.986 70.3482 206.769L65.4017 201.526C63.3418 199.342 60.914 197.538 58.2291 196.195L56.2923 195.227C56.6205 195.391 56.9801 195.481 57.3465 195.493L69.9431 195.913C76.0437 196.117 81.9566 198.072 86.9752 201.547C94.4845 206.746 99.3943 214.924 100.453 223.995L100.592 225.187C101.676 234.477 98.9339 243.808 92.9973 251.035L92.2867 251.9C84.1969 261.749 71.6153 266.751 58.9719 265.145L54.8762 264.625C50.1806 264.029 45.6101 262.688 41.3366 260.653L38.1223 259.122C30.6475 255.563 23.9936 250.489 18.5823 244.224L15.8305 241.037C10.5673 234.943 7.05479 227.536 5.66671 219.604C4.75475 214.393 4.77854 209.061 5.73696 203.858L7.78783 192.725L10.0011 185.716C16.0856 166.448 31.7037 151.699 51.2878 146.725L65.3653 144.965C71.9535 144.142 78.6198 144.159 85.2036 145.018L89.476 145.576C95.3094 146.336 100.974 148.068 106.236 150.699C116.027 155.595 124.052 163.416 129.197 173.079Z" fill="url(#paint0_linear_121_178)" fill-opacity="0.16" shape-rendering="crispEdges"/>
  </g>
  <defs>
    <filter id="filter0_dd_121_178" x="0" y="0" width="354.788" height="341.225" filterUnits="userSpaceOnUse" color-interpolation-filters="sRGB">
      <feFlood flood-opacity="0" result="BackgroundImageFix"/>
      <feColorMatrix in="SourceAlpha" type="matrix" values="0 0 0 0 0 0 0 0 0 0 0 0 0 0 0 0 0 0 127 0" result="hardAlpha"/>
      <feOffset dx="-1" dy="1"/>
      <feGaussianBlur stdDeviation="2"/>
      <feComposite in2="hardAlpha" operator="out"/>
      <feColorMatrix type="matrix" values="0 0 0 0 1 0 0 0 0 0.3 0 0 0 0 0 0 0 0 0.8 0"/>
      <feBlend mode="normal" in2="BackgroundImageFix" result="effect1_dropShadow_121_178"/>
      <feColorMatrix in="SourceAlpha" type="matrix" values="0 0 0 0 0 0 0 0 0 0 0 0 0 0 0 0 0 0 127 0" result="hardAlpha"/>
      <feOffset dx="1" dy="-1"/>
      <feGaussianBlur stdDeviation="2"/>
      <feComposite in2="hardAlpha" operator="out"/>
      <feColorMatrix type="matrix" values="0 0 0 0 1 0 0 0 0 0 0 0 0 0 0.72 0 0 0 0.8 0"/>
      <feBlend mode="normal" in2="effect1_dropShadow_121_178" result="effect2_dropShadow_121_178"/>
      <feBlend mode="normal" in="SourceGraphic" in2="effect2_dropShadow_121_178" result="shape"/>
    </filter>
    <linearGradient id="paint0_linear_121_178" x1="5" y1="5" x2="416.448" y2="171.183" gradientUnits="userSpaceOnUse">
      <stop stop-opacity="0"/>
      <stop offset="0.990007" stop-color="#FF4D00"/>
    </linearGradient>
  </defs>
</svg>