<svg xmlns="http://www.w3.org/2000/svg" width="253" height="235" viewBox="0 0 253 235" fill="none">
  <g filter="url(#filter0_dd_160_1227)">
    <path d="M70.5483 100.22L58.1384 76.9136C55.937 72.7792 52.5035 69.433 48.3144 67.3382C46.0632 66.2125 43.6394 65.4715 41.1436 65.1463L39.3156 64.9075C36.4987 64.54 33.6465 64.5327 30.8277 64.8849L24.8045 65.6379C16.4254 67.766 9.74305 74.0765 7.13974 82.3204L6.19279 85.3193L5.31531 90.0826C4.90525 92.3087 4.89507 94.59 5.28526 96.8196C5.87915 100.213 7.38201 103.382 9.63391 105.99L10.8113 107.353C13.1265 110.034 15.9735 112.205 19.1716 113.728L20.5468 114.383C22.3753 115.253 24.3308 115.827 26.3398 116.082L28.0922 116.305C33.5018 116.992 38.8849 114.852 42.3462 110.638L42.6502 110.268C45.1902 107.175 46.3632 103.183 45.8995 99.2083L45.84 98.6983C45.3872 94.8172 43.2865 91.3182 40.0736 89.0938C37.9264 87.607 35.3965 86.7706 32.7863 86.6833L27.3968 86.5036C27.2393 86.4984 27.0847 86.4595 26.9438 86.3889L27.7744 86.8039C28.9232 87.3785 29.9619 88.1504 30.8432 89.0848L32.9596 91.3281C36.6799 95.2716 35.7937 101.645 31.1388 104.425C27.9968 106.3 24.006 105.949 21.2407 103.552L21.0689 103.403C20.0092 102.485 19.1846 101.326 18.6638 100.024L18.0062 98.3804C16.7251 95.1775 16.5074 91.6477 17.3853 88.3117L17.6645 87.2506C18.6748 83.4115 21.1688 80.1307 24.5979 78.1304C26.1492 77.2255 27.8507 76.6073 29.6209 76.3052L30.7704 76.1088C33.9972 75.5577 37.3146 75.9552 40.3198 77.2529C43.4517 78.6054 46.1013 80.8734 47.9207 83.7593L51.3316 89.17L56.9019 101.345C57.9869 103.717 59.2863 105.984 60.7842 108.119L64.8557 113.921C67.4678 117.645 70.6814 120.907 74.3648 123.575C77.5335 125.87 81.0145 127.699 84.7014 129.008L85.774 129.388L94.9772 131.984C96.6745 132.463 96.5059 134.922 94.759 135.165L91.5248 135.627C88.704 136.03 85.8399 136.024 83.0208 135.609C81.0107 135.313 79.0366 134.812 77.1296 134.113L73.5801 132.811L66.3066 129.388L62.6339 127.976C59.5306 126.782 56.299 125.954 53.0045 125.509L50.048 125.11L48.6284 124.991C46.1566 124.786 43.6717 124.795 41.2016 125.02L40.2073 125.11C37.5061 125.536 34.8612 126.264 32.322 127.28L31.8642 127.463L31.4932 127.639C29.0452 128.798 26.7894 130.326 24.8045 132.17L22.1146 135.143C21.1998 136.154 20.3738 137.242 19.6457 138.394C18.6671 139.944 17.871 141.602 17.2735 143.334L16.0335 146.931L16.0086 147.055C15.4561 149.818 15.1778 152.628 15.1778 155.446V156.343V157.063C15.1778 159.138 15.498 161.2 16.1271 163.178C16.4918 164.324 16.9584 165.435 17.5213 166.499L17.5535 166.559C18.2496 167.874 19.0839 169.111 20.0421 170.249L22.0235 172.602L22.959 173.444C25.1759 175.439 27.6712 177.101 30.3667 178.378L33.27 179.662L36.1427 180.517L37.3937 180.726C38.2696 180.872 39.1561 180.945 40.0441 180.945C40.8648 180.945 41.6843 180.882 42.4955 180.758L42.655 180.733C43.589 180.59 44.5103 180.373 45.4108 180.087L46.2255 179.828C47.9147 179.29 49.5513 178.6 51.1155 177.766L51.9734 177.308C53.8204 176.243 55.5297 174.954 57.0627 173.472L57.9634 172.602C60.9652 170.146 62.8114 166.553 63.0613 162.683L63.0976 162.119V160.446C63.0976 158.16 62.6612 155.895 61.8124 153.772C61.2455 152.354 60.5001 151.015 59.5944 149.786L59.5272 149.695C58.4896 148.287 57.2613 147.03 55.8771 145.96L55.4822 145.655C54.0091 144.517 52.355 143.635 50.5893 143.046C49.3767 142.642 48.1218 142.379 46.8488 142.264L46.0267 142.189C44.7194 142.07 43.4024 142.115 42.1061 142.323L41.8239 142.367C39.772 142.696 37.8149 143.462 36.0859 144.615L35.4124 145.064C34.6204 145.592 33.9147 146.239 33.3201 146.982C32.78 147.657 32.3372 148.405 32.0046 149.203L31.4363 150.567L30.961 151.898C30.5677 152.999 30.3667 154.16 30.3667 155.329V155.607C30.3667 156.52 30.5138 157.427 30.8024 158.292C31.2193 159.543 31.9216 160.679 32.8537 161.612L33.8851 162.643C34.1052 162.863 34.3593 163.046 34.6376 163.185L35.0731 163.403C35.3508 163.542 35.576 163.767 35.7149 164.045L34.3215 160.84C33.8343 159.72 33.6768 158.484 33.8673 157.277C34.094 155.841 34.8006 154.525 35.8718 153.543L36.0499 153.38C36.5372 152.933 37.0845 152.556 37.6758 152.261L38.1886 152.004C39.2426 151.477 40.3731 151.12 41.5385 150.945L41.756 150.913C43.2716 150.685 44.8188 150.799 46.285 151.245L47.0714 151.484C48.3199 151.864 49.4435 152.572 50.3253 153.534C50.9893 154.258 51.5002 155.109 51.8271 156.036L51.8989 156.239C52.3687 157.57 52.4932 158.999 52.2613 160.392L52.1976 160.774C52.0487 161.667 51.7753 162.54 51.3894 163.359C51.0424 164.095 50.6043 164.791 50.0887 165.421L49.9522 165.588C49.1654 166.55 48.2305 167.379 47.1821 168.047L46.7365 168.33C44.9705 169.454 42.9885 170.195 40.9184 170.506L40.4359 170.578C39.9989 170.644 39.5576 170.677 39.1158 170.677C37.5874 170.677 36.0847 170.283 34.7527 169.534L34.3316 169.297C33.6867 168.934 33.081 168.506 32.5241 168.018L31.8614 167.439C30.5853 166.322 29.4623 165.041 28.5217 163.631L27.7995 162.547L27.3136 161.616C25.9515 159.005 25.3211 156.075 25.4891 153.135C25.6022 151.154 26.0754 149.211 26.8855 147.401L27.0412 147.052C28.5126 143.764 30.9636 140.95 34.0034 139.015L35.1742 138.43C36.6672 137.683 38.2634 137.164 39.9099 136.89C40.8198 136.738 41.7405 136.662 42.6629 136.662H43.4903C46.5557 136.662 49.5984 137.189 52.4851 138.22L54.1127 138.801L69.4278 144.196C71.7639 145.019 74.1667 145.638 76.6098 146.045L81.9233 146.931L86.652 147.635C90.1822 148.161 93.7719 148.149 97.2987 147.6L100.94 147.034C101.381 146.965 101.813 146.842 102.225 146.669L106.509 144.86C108.573 143.989 110.792 145.718 110.452 147.933C110.401 148.26 110.294 148.577 110.136 148.868L109.153 150.67C108.265 152.298 107.075 153.742 105.647 154.924L101.605 158.269L93.2615 164.473L85.3462 169.179L77.2169 174.848L72.9037 178.083C70.3721 179.982 68.1181 182.225 66.2073 184.747L65.7157 185.396C64.403 187.129 63.3026 189.013 62.4379 191.008C61.456 193.274 60.7872 195.663 60.4501 198.109L60.1027 200.626V201.181C60.1027 204.494 60.682 207.782 61.8141 210.895L62.7087 213.097C63.9474 216.146 65.9176 218.843 68.4458 220.95L70.2527 222.305C72.4583 223.959 74.9005 225.272 77.4967 226.199C78.877 226.692 80.294 227.074 81.7346 227.341L82.2617 227.438C84.3137 227.818 86.3961 228.009 88.4828 228.009H89.8207C93.5054 228.009 97.1546 227.29 100.563 225.891L101.369 225.561C102.946 224.914 104.44 224.078 105.817 223.071L105.875 223.029C108.139 221.374 110.045 219.279 111.478 216.869C113.144 214.067 114.128 210.912 114.35 207.659L114.434 206.432C114.58 204.287 114.375 202.133 113.828 200.054L113.666 199.437C112.911 196.57 111.434 193.945 109.375 191.812C107.501 189.871 105.2 188.395 102.654 187.5L102.211 187.345C99.8338 186.509 97.3141 186.153 94.7984 186.297C92.3698 186.436 89.9905 187.038 87.7884 188.07L85.937 188.938C84.8349 189.454 83.808 190.117 82.8843 190.909C81.8223 191.82 80.9084 192.89 80.1751 194.081L79.5701 195.064L78.8445 196.516C78.4735 197.258 78.1851 198.037 77.984 198.841C77.7586 199.743 77.6448 200.668 77.6448 201.597V201.91V203.621L77.6657 203.787C77.7941 204.816 78.0016 205.833 78.2865 206.83L78.4953 207.317C78.7824 207.987 79.1696 208.609 79.6437 209.163C80.0211 209.603 80.4506 209.996 80.9221 210.333L81.7094 210.895L82.017 211.084C83.6343 212.079 85.4959 212.606 87.3947 212.606H87.7246C88.4177 212.606 89.1079 212.514 89.7766 212.332C90.6665 212.089 91.5064 211.69 92.2573 211.154L92.6197 210.895L93.5037 210.109C94.1951 209.495 94.8048 208.794 95.3178 208.024L95.8188 207.273C95.8252 207.263 95.8312 207.253 95.8359 207.242L95.9519 206.981C96.0413 206.779 95.764 206.621 95.6361 206.8C95.622 206.82 95.604 206.837 95.583 206.85L94.0385 207.8C93.2401 208.292 92.3707 208.657 91.4611 208.885L91.254 208.937C90.5981 209.101 89.9246 209.184 89.2486 209.184H89.0497C88.5786 209.184 88.1093 209.132 87.6497 209.03L87.3143 208.956C86.7209 208.823 86.1587 208.578 85.6589 208.232C84.3912 207.354 83.6347 205.91 83.6347 204.368V203.961C83.6347 203.452 83.7058 202.945 83.8457 202.456L84.1037 201.553C84.3595 200.658 84.7767 199.817 85.3355 199.072C86.0461 198.124 86.9673 197.356 88.0263 196.826L88.3262 196.677C89.0458 196.316 89.8108 196.054 90.6002 195.897L91.871 195.643C92.971 195.423 94.0967 195.357 95.2151 195.446C97.603 195.637 99.8813 196.531 101.762 198.015L101.819 198.059L103.073 199.217C104.077 200.144 104.853 201.291 105.339 202.569C105.606 203.268 105.782 203.998 105.865 204.741L105.882 204.896C106.024 206.174 105.92 207.467 105.576 208.705L105.524 208.894C105.195 210.077 104.672 211.198 103.977 212.209L103.65 212.685C103.002 213.628 102.245 214.491 101.395 215.256L101.348 215.298C100.807 215.785 100.231 216.232 99.6254 216.636L98.8018 217.185C97.398 218.121 95.862 218.84 94.2443 219.32C92.0434 219.972 89.7325 220.167 87.4538 219.893L87.3883 219.886C86.1732 219.74 84.9769 219.464 83.82 219.064L81.8925 218.397C80.6355 217.961 79.4405 217.351 78.3507 216.588C76.623 215.378 75.1769 213.796 74.1303 211.965C73.4813 210.829 72.9914 209.61 72.6739 208.341L72.2465 206.63C71.9949 205.624 71.8195 204.6 71.7211 203.568L71.6415 202.735C71.5084 201.337 71.5743 199.926 71.8375 198.545C72.1412 196.949 72.7052 195.413 73.5065 193.999L74.0105 193.109C75.2817 190.866 76.9538 188.876 78.9437 187.237L80.8254 185.687C82.4098 184.382 84.1084 183.223 85.9007 182.223L101.605 173.458L116.152 162.975L123.166 156.787C123.338 156.634 123.49 156.46 123.617 156.269C124.448 155.023 126.147 154.711 127.365 155.582L131.127 158.269L139.042 164.473L146.744 169.821L152.733 173.885L159.793 177.95L167.067 182.229L169.645 184.103C171.06 185.133 172.369 186.301 173.552 187.592L174.51 188.638C175.814 190.06 176.876 191.687 177.653 193.453C178.434 195.228 178.917 197.12 179.083 199.052L179.132 199.625C179.358 202.263 179.043 204.954 178.229 207.473C177.503 209.715 176.367 211.838 174.895 213.678L174.631 214.008C173.447 215.488 172.024 216.759 170.421 217.768L169.879 218.11C168.029 219.274 165.936 219.997 163.761 220.222C161.849 220.42 159.916 220.228 158.08 219.658L157.348 219.431C155.568 218.879 153.897 218.025 152.406 216.907L152.072 216.656C150.394 215.398 149.012 213.788 148.021 211.939L147.761 211.454C146.812 209.682 146.316 207.704 146.316 205.694C146.316 204.322 146.547 202.96 147 201.665L147.043 201.543C147.552 200.088 148.323 198.74 149.318 197.564L149.527 197.318C149.952 196.815 150.428 196.358 150.948 195.954L151.233 195.733C151.802 195.29 152.435 194.936 153.111 194.682C153.571 194.509 154.048 194.385 154.534 194.31L155.402 194.177C156.189 194.055 156.984 193.995 157.78 193.995H158.592C159.106 193.995 159.62 194.037 160.128 194.122C161.32 194.32 162.461 194.748 163.49 195.381L163.815 195.581C164.412 195.948 164.964 196.384 165.459 196.88L165.755 197.175C166.339 197.759 166.811 198.447 167.147 199.202C167.378 199.722 167.542 200.268 167.635 200.83L167.754 201.54C167.866 202.213 167.922 202.895 167.922 203.577V204.263C167.922 205.115 167.804 205.962 167.57 206.781L167.495 207.044L167.212 207.751C166.831 208.704 166.352 209.614 165.783 210.467L164.713 211.751C164.145 212.319 163.509 212.816 162.82 213.229L162.788 213.248L164.286 212.606C165.851 211.895 167.348 211.04 168.756 210.054L168.778 210.039L169.483 209.51C170.153 209.008 170.787 208.458 171.379 207.866L171.83 207.415C172.219 207.026 172.577 206.603 172.897 206.155C173.286 205.61 173.621 205.025 173.893 204.413C174.19 203.745 174.413 203.046 174.556 202.328L174.626 201.978C174.862 200.797 174.935 199.59 174.843 198.39L174.768 197.418C174.346 195.448 173.471 193.604 172.213 192.031L171.559 191.214L169.42 189.074C167.862 187.8 166.098 186.803 164.203 186.126L164.072 186.079L162.578 185.681C161.436 185.376 160.273 185.158 159.099 185.028C157.71 184.873 156.311 184.842 154.917 184.935L153.803 185.01L153.746 185.017C152.647 185.154 151.569 185.425 150.535 185.822C149.721 186.135 148.938 186.526 148.198 186.989L147.487 187.433C146.423 188.098 145.416 188.852 144.478 189.686L143.962 190.144L142.037 192.283L141.461 192.983C139.862 194.924 138.634 197.143 137.839 199.529L137.765 199.752C137.476 200.619 137.255 201.507 137.105 202.408C136.69 204.899 136.819 207.45 137.483 209.886L137.759 210.895L138.347 212.829C138.951 214.811 139.817 216.703 140.923 218.454L140.955 218.506C141.533 219.42 142.177 220.292 142.881 221.114C144.726 223.266 146.964 225.048 149.475 226.364L150.166 226.726L154.659 228.437L159.365 229.507L161.311 229.745C163.507 230.013 165.728 230.005 167.922 229.721L173.271 228.437C176.941 227.166 180.317 225.169 183.197 222.563L183.325 222.447L184.744 220.793C185.508 219.9 186.205 218.952 186.828 217.955C188.331 215.55 189.386 212.893 189.942 210.112L189.982 209.915C190.391 207.867 190.538 205.775 190.419 203.689L190.171 199.343L189.597 196.358C189.267 194.644 188.77 192.967 188.111 191.35C187.207 189.13 186.006 187.042 184.542 185.145L183.298 183.533C181.751 181.527 180.023 179.666 178.136 177.975L174.768 174.955L160.221 165.114L148.789 157.056C147.713 156.297 146.711 155.439 145.796 154.492L141.795 150.354C141.258 149.798 140.914 149.084 140.815 148.316C140.484 145.746 142.899 143.681 145.387 144.408L153.21 146.695C153.747 146.851 154.297 146.957 154.854 147.011L160.649 147.572L163.145 147.711C166.602 147.903 170.07 147.675 173.472 147.031L176.266 146.503L185.037 143.722L197.525 138.518C201.112 137.024 205.038 136.529 208.884 137.087L210.077 137.261C214.088 137.843 217.786 139.76 220.574 142.702L220.652 142.785C222.825 145.078 224.341 147.914 225.041 150.995L225.069 151.205C225.335 153.195 225.325 155.212 225.041 157.199L225.026 157.283C224.476 160.31 223.125 163.133 221.115 165.461L220.825 165.797C220.357 166.339 219.841 166.839 219.285 167.291C217.591 168.667 215.56 169.564 213.402 169.888L213.337 169.897C212.726 169.989 212.109 170.035 211.492 170.035H210.462C209.066 170.035 207.68 169.81 206.356 169.369C205.128 168.959 203.969 168.369 202.915 167.617L202.091 167.028C201.704 166.751 201.34 166.442 201.003 166.106L200.976 166.079C200.337 165.44 199.806 164.702 199.401 163.894C198.818 162.727 198.514 161.44 198.514 160.135V159.552L198.671 157.668C198.709 157.213 198.779 156.762 198.882 156.318C199.203 154.926 199.833 153.625 200.725 152.51L201.106 152.034C201.658 151.344 202.298 150.731 203.01 150.208L203.104 150.139C204.442 149.158 206.012 148.54 207.661 148.346C208.406 148.258 209.159 148.258 209.904 148.346L211.117 148.489C211.974 148.59 212.798 148.882 213.525 149.346C214.343 149.866 215.016 150.586 215.48 151.437L215.61 151.675C215.906 152.218 216.127 152.798 216.265 153.399L216.36 153.811C216.581 154.768 216.534 155.767 216.223 156.698L216.088 157.104C216.067 157.167 216.04 157.228 216.007 157.286L214.582 159.779C214.511 159.903 214.644 160.044 214.773 159.98L215.017 159.872C216.134 159.375 217.2 158.766 218.195 158.055L218.722 157.603C219.366 157.051 219.924 156.408 220.379 155.693L220.538 155.442C220.97 154.765 221.279 154.017 221.454 153.233C221.563 152.741 221.618 152.239 221.618 151.735V151.53C221.618 150.61 221.457 149.697 221.143 148.832C220.891 148.138 220.542 147.483 220.108 146.886L219.84 146.517C219.316 145.797 218.708 145.142 218.028 144.567L217.78 144.357C216.778 143.51 215.662 142.809 214.463 142.277L214.34 142.222C213.066 141.656 211.718 141.273 210.337 141.084L210.14 141.057C208.531 140.838 206.898 140.862 205.297 141.129L203.862 141.368L202.265 141.812C200.77 142.227 199.342 142.853 198.023 143.669C196.367 144.694 194.907 146.006 193.711 147.544L193.358 147.998C192.803 148.711 192.321 149.476 191.917 150.284C191.048 152.022 190.559 153.925 190.481 155.866L190.45 156.645C190.407 157.725 190.464 158.807 190.623 159.877L190.778 160.919C191.084 162.991 191.7 165.005 192.604 166.895L192.637 166.964C193.273 168.294 194.052 169.551 194.961 170.712L195.263 171.098C196.703 172.939 198.491 174.477 200.525 175.627C201.747 176.317 203.047 176.861 204.396 177.247L204.649 177.319C206.116 177.738 207.627 177.989 209.151 178.065L209.254 178.07C210.506 178.132 211.761 178.082 213.005 177.92L213.605 177.842C215.236 177.629 216.844 177.272 218.412 176.773L220.763 176.025L220.826 175.997C224.031 174.604 226.92 172.575 229.32 170.035L230.59 168.411C232.294 166.234 233.555 163.745 234.304 161.084C234.829 159.216 235.096 157.285 235.096 155.344V153.592C235.096 151.299 234.815 149.015 234.258 146.79L234.193 146.528C233.376 143.26 231.947 140.178 229.981 137.443L229.869 137.287C228.652 135.593 227.228 134.058 225.631 132.716C223.681 131.078 221.492 129.746 219.14 128.766L218.505 128.501C216.169 127.528 213.718 126.858 211.212 126.509L210.405 126.396C207.339 125.968 204.232 125.938 201.16 126.307L199.403 126.518C196.536 126.862 193.711 127.495 190.971 128.409L185.464 130.244L179 133.1C177.18 133.905 175.301 134.569 173.379 135.089L171.868 135.497C169.533 136.128 167.125 136.448 164.706 136.448C163.287 136.448 161.87 136.338 160.468 136.119L155.728 135.378L152.616 134.6C152.41 134.549 152.208 134.478 152.014 134.39L150.486 133.696C150.161 133.548 149.952 133.224 149.952 132.866C149.952 132.363 150.36 131.956 150.863 131.956H155.835C156.191 131.956 156.547 131.923 156.897 131.859L161.034 131.1C166.425 130.112 171.558 128.034 176.118 124.994C178.774 123.223 181.225 121.127 183.39 118.782C186.31 115.619 188.73 111.991 190.52 108.077L197.017 93.8764L201.56 85.2756C202.518 83.4637 203.775 81.8267 205.279 80.4344L205.472 80.2552C207.642 78.2459 210.295 76.8319 213.173 76.1503C215.635 75.5671 218.196 75.5359 220.671 76.0588L223.64 76.686C228.976 77.8134 233.489 81.3496 235.86 86.2614L236.217 87.0007C237.441 89.5349 237.916 92.3661 237.587 95.1608C237.355 97.1367 236.726 99.0449 235.739 100.772L234.923 102.201C234.189 103.485 233.219 104.619 232.064 105.544C231.096 106.318 230.004 106.937 228.844 107.372C227.746 107.783 226.586 108.033 225.416 108.106L223.758 108.21L222.752 108.142C221.295 108.045 219.867 107.689 218.535 107.089L218.171 106.926C216.916 106.361 215.788 105.551 214.852 104.543C213.952 103.574 213.247 102.439 212.776 101.203L212.428 100.29C211.998 99.1613 211.778 97.9637 211.778 96.7559V96.5779C211.778 94.813 212.279 93.0849 213.223 91.5942C214.863 89.0048 217.671 87.388 220.734 87.2703L221.404 87.2446C224.919 87.385 228.35 88.3613 231.412 90.092L231.673 90.2396C231.821 90.3504 232.008 90.1656 231.9 90.0163L230.817 88.5282L228.892 86.3889L228.02 85.5901C226.896 84.559 225.632 83.6896 224.267 83.0067L224.013 82.8801C223.274 82.5104 222.502 82.21 221.707 81.9828C220.513 81.6414 219.277 81.4686 218.035 81.4686H217.917C216.682 81.4686 215.452 81.6299 214.257 81.9482L214.12 81.985C213.273 82.2105 212.447 82.5087 211.651 82.8762L211.537 82.9288C210.559 83.3802 209.628 83.927 208.756 84.5602L208.645 84.6415C208.024 85.0925 207.44 85.5918 206.898 86.1339C206.019 87.0136 205.255 88.0011 204.624 89.0728L204.185 89.8199C203.686 90.6675 203.284 91.5681 202.986 92.5055C202.298 94.6662 202.18 96.9681 202.642 99.1882L203.007 100.936C204.894 107.003 209.504 111.841 215.472 114.02L217.24 114.665C218.724 115.208 220.281 115.525 221.86 115.608C222.979 115.667 224.102 115.608 225.209 115.43L226.012 115.302C227.924 114.996 229.793 114.455 231.573 113.692L231.892 113.556C234.858 112.284 237.566 110.479 239.881 108.231L240.758 107.379C242.812 105.384 244.467 103.016 245.635 100.402C247.413 96.4221 248 92.0122 247.324 87.7063L247.11 86.3414C244.306 68.4669 225.167 58.2522 208.757 65.8711L205.574 67.3493C198.743 71.2526 193.242 77.1173 189.785 84.1837L184.75 94.472C181.843 100.412 177.599 105.597 172.351 109.621L167.706 113.182C167.566 113.29 167.412 113.378 167.248 113.446C165.197 114.293 163.478 111.692 165.062 110.137L169.206 106.07L171.878 102.953C174.364 100.052 176.45 96.8325 178.081 93.3779L179.261 90.8814L180.654 86.5164C181.857 82.7461 182.469 78.812 182.469 74.8548C182.469 72.4237 182.238 69.9982 181.779 67.6112L179.889 57.7795C179.471 55.6102 178.794 53.4992 177.87 51.4925L171.062 36.6942C167.073 28.0255 172.279 17.9142 181.653 16.1259C189.484 14.6318 197.077 19.6576 198.762 27.4502L198.925 28.2022C199.078 28.9121 199.156 29.6364 199.156 30.3627C199.156 32.8309 198.263 35.2157 196.642 37.0769L196.036 37.7719C194.308 39.7562 192.006 41.1539 189.448 41.7714L184.357 43.0001C182.126 43.5387 179.805 43.5985 177.549 43.1754C178.119 43.2822 178.679 43.4334 179.225 43.6273L185.836 45.9758C188.957 47.0846 192.314 47.3593 195.573 46.7725L196.477 46.6099C199.618 46.0446 202.518 44.5543 204.805 42.3299C207.512 39.6983 209.202 36.1951 209.578 32.4386L209.747 30.7505C210.356 24.6601 208.234 18.6131 203.953 14.2386L203.191 13.46C198.217 8.37692 191.17 5.88131 184.105 6.70043L182.651 6.86908C181.249 7.03164 179.862 7.30817 178.505 7.69591L176.825 8.17589C174.047 8.96954 171.421 10.2224 169.057 11.8825C159.336 18.7078 155.504 31.2703 159.76 42.3593L165.157 56.4219C166.845 60.8224 167.774 65.4783 167.904 70.1898C168.191 80.6723 164.509 90.8763 157.596 98.7604L150.116 107.291C149.584 107.898 148.94 108.395 148.218 108.756C145.071 110.329 141.247 108.985 139.777 105.788L138.914 103.913C138.035 102.001 137.922 99.8253 138.598 97.8328L140.677 91.7054C141.296 89.8789 142.13 88.132 143.159 86.5014L145.839 82.2592C148.14 78.6152 149.878 74.6447 150.993 70.4821L151.531 68.4729C152.187 66.023 152.52 63.4978 152.52 60.9614C152.52 57.1287 151.761 53.334 150.287 49.7961L150.118 49.3918C148.182 44.7459 145.152 40.6371 141.286 37.4152L138.03 34.7018C136.434 33.3717 134.629 32.3148 132.688 31.5737C127.128 29.451 120.893 30.079 115.869 33.2676L114.829 33.9271C113.434 34.8127 112.146 35.8579 110.992 37.0414L109.989 38.0702C106.306 41.8484 103.563 46.4411 101.985 51.4763L101.86 51.8763C100.56 56.0235 100.036 60.3748 100.314 64.712L100.387 65.8565C100.767 71.7746 102.409 77.543 105.205 82.7731L107.595 87.2446L110.997 93.4815C112.921 97.0104 113.306 101.177 112.06 104.999L111.09 107.973C110.902 108.548 110.562 109.061 110.105 109.456C108.718 110.659 106.619 110.511 105.414 109.125L91.1813 92.7567C85.4334 86.1472 83.5547 77.0159 86.2267 68.674L92.4058 49.3794L94.759 38.0058C95.7396 33.265 95.4474 28.3491 93.9118 23.758L93.3458 22.0654C89.863 11.6535 79.9933 4.73349 69.0179 5.00787L67.8143 5.03797C58.9201 5.26032 50.9453 10.5738 47.3152 18.6963L45.103 23.6461C40.9249 32.9941 45.4151 43.9365 54.9551 47.6555L55.8361 47.9991C60.1715 49.6891 65.0307 49.3918 69.1278 47.1856L69.8205 46.8124C72.3997 45.4237 74.4576 43.235 75.6852 40.5756C76.9546 37.825 77.2631 34.7277 76.5614 31.7807L75.9731 29.3082C75.6621 28.0023 75.2257 26.7294 74.6703 25.5073L73.3662 22.6384L73.9802 24.403C74.6985 26.4691 74.8513 28.6899 74.4226 30.8349L74.2626 31.635C73.9553 33.1702 73.2588 34.6009 72.2401 35.7896C71.5696 36.5719 70.7712 37.2352 69.8796 37.7513L67.0408 39.3945C65.3135 40.3941 63.3107 40.8113 61.3285 40.5845C56.2652 40.0052 52.6126 35.4564 53.1406 30.3875L53.257 29.2701L53.3562 28.6327C54.2158 23.1057 58.0708 18.5119 63.3646 16.7058C69.1535 14.7307 75.609 16.5106 79.6227 21.1263C83.3729 25.4394 84.4395 31.5371 82.3165 36.844L75.0994 54.8863C74.2309 57.0589 73.5416 59.2988 73.0389 61.5835L71.4408 68.8468L71.0703 71.1174C70.1859 76.5332 70.4341 82.0736 71.7985 87.3884C73.1155 92.5175 75.4451 97.3313 78.6506 101.547L89.2041 115.425C89.3406 115.605 89.4399 115.809 89.4968 116.027C89.9003 117.574 88.1448 118.776 86.8488 117.84L79.704 112.68C79.3314 112.411 78.9985 112.09 78.7157 111.728L74.5852 106.436C73.0624 104.484 71.7117 102.404 70.5483 100.22Z" fill="url(#paint0_linear_160_1227)" fill-opacity="0.16" shape-rendering="crispEdges"/>
  </g>
  <defs>
    <filter id="filter0_dd_160_1227" x="0" y="0" width="252.597" height="234.94" filterUnits="userSpaceOnUse" color-interpolation-filters="sRGB">
      <feFlood flood-opacity="0" result="BackgroundImageFix"/>
      <feColorMatrix in="SourceAlpha" type="matrix" values="0 0 0 0 0 0 0 0 0 0 0 0 0 0 0 0 0 0 127 0" result="hardAlpha"/>
      <feOffset dx="-1" dy="1"/>
      <feGaussianBlur stdDeviation="2"/>
      <feComposite in2="hardAlpha" operator="out"/>
      <feColorMatrix type="matrix" values="0 0 0 0 1 0 0 0 0 0.3 0 0 0 0 0 0 0 0 0.8 0"/>
      <feBlend mode="normal" in2="BackgroundImageFix" result="effect1_dropShadow_160_1227"/>
      <feColorMatrix in="SourceAlpha" type="matrix" values="0 0 0 0 0 0 0 0 0 0 0 0 0 0 0 0 0 0 127 0" result="hardAlpha"/>
      <feOffset dx="1" dy="-1"/>
      <feGaussianBlur stdDeviation="2"/>
      <feComposite in2="hardAlpha" operator="out"/>
      <feColorMatrix type="matrix" values="0 0 0 0 1 0 0 0 0 0 0 0 0 0 0.72 0 0 0 0.8 0"/>
      <feBlend mode="normal" in2="effect1_dropShadow_160_1227" result="effect2_dropShadow_160_1227"/>
      <feBlend mode="normal" in="SourceGraphic" in2="effect2_dropShadow_160_1227" result="shape"/>
    </filter>
    <linearGradient id="paint0_linear_160_1227" x1="5" y1="5" x2="291.548" y2="124.911" gradientUnits="userSpaceOnUse">
      <stop stop-opacity="0"/>
      <stop offset="0.990007" stop-color="#FF4D00"/>
    </linearGradient>
  </defs>
</svg>